<svg width="14" height="18" viewBox="0 0 14 18" fill="none" xmlns="http://www.w3.org/2000/svg">
<path d="M1 0C0.447716 0 0 0.447715 0 1V17C0 17.5523 0.447715 18 1 18H3.04834C3.60063 18 4.04834 17.5523 4.04834 17V13.6L5.66802 11.6L9.02394 17.4947C9.20177 17.8071 9.53355 18 9.89298 18H12.1379C12.8834 18 13.3668 17.2137 13.0302 16.5485L8.74824 8.08656C8.59477 7.78326 8.60587 7.42278 8.77771 7.1295L12.073 1.50555C12.4636 0.8389 11.9828 0 11.2102 0H9.06471C8.71534 0 8.39131 0.18233 8.20997 0.480948L4.85846 6H6.47757L2.02445 12.4L3.64357 8H2.83401L3.87377 1.15007C3.96563 0.544929 3.49717 0 2.8851 0H1Z" fill="#E23C27" fill-opacity="0.75"/>
<path d="M9.55809 1.05863C9.21124 1.05861 8.89012 1.23675 8.70775 1.5318C8.02847 2.63079 6.39745 5.26507 6.35295 5.29394C6.39045 5.2757 7.94119 5.29394 7.94119 5.29394C7.94119 5.29394 1.67242 13.251 1.58825 13.2352C1.50408 13.2193 2.64707 8.47041 2.64707 8.47041L2.11766 8.47049L2.58993 1.85907C2.62082 1.42658 2.27828 1.05871 1.84468 1.05872C1.41068 1.05869 1.05884 1.4105 1.05884 1.8445L1.05886 15.9411C1.05886 16.4934 1.50658 16.9411 2.05886 16.9411H2.19824C2.74197 16.9411 3.18597 16.5073 3.19488 15.9636C3.21288 14.8657 3.23052 13.2352 3.17651 13.2352C3.27422 13.1718 5.6947 9.91539 5.82357 10.0587C5.82357 9.93835 8.81116 14.875 9.76789 16.459C9.94911 16.759 10.2732 16.9411 10.6237 16.9411L11.6471 16.9411C11.8903 16.9411 12.0485 16.6851 11.9397 16.4676L7.41181 7.41164L10.8509 1.51601C10.9692 1.31329 10.8229 1.0587 10.5882 1.0587L9.55809 1.05863Z" fill="white"/>
</svg>
