<svg width="31" height="31" viewBox="0 0 31 31" fill="none" xmlns="http://www.w3.org/2000/svg">
<path d="M31 15.5C31 24.0604 24.0604 31 15.5 31C6.93959 31 0 24.0604 0 15.5C0 6.93959 6.93959 0 15.5 0C24.0604 0 31 6.93959 31 15.5Z" fill="#FDF3F0"/>
<path fill-rule="evenodd" clip-rule="evenodd" d="M11.1154 12.7038C10.7257 12.3149 10.0947 12.3153 9.70538 12.7045C9.31581 13.0941 9.31581 13.7257 9.70538 14.1153L14.2929 18.7028C14.6834 19.0933 15.3166 19.0933 15.7071 18.7028L20.2946 14.1153C20.6842 13.7257 20.6842 13.0941 20.2946 12.7045C19.9053 12.3153 19.2743 12.3149 18.8846 12.7038L15.7063 15.8751C15.316 16.2646 14.684 16.2646 14.2937 15.8751L11.1154 12.7038Z" fill="#F7634F"/>
</svg>
