<svg width="73" height="73" viewBox="0 0 73 73" fill="none" xmlns="http://www.w3.org/2000/svg">
<g clip-path="url(#clip0_1459_6601)">
<path d="M36.5 0C29.281 0 22.2241 2.14069 16.2217 6.15136C10.2193 10.162 5.54101 15.8626 2.77841 22.5321C0.0158148 29.2016 -0.707007 36.5405 0.701354 43.6208C2.10971 50.7011 5.586 57.2048 10.6906 62.3094C15.7952 67.414 22.2989 70.8903 29.3792 72.2987C36.4595 73.707 43.7985 72.9842 50.468 70.2216C57.1375 67.459 62.838 62.7807 66.8487 56.7783C70.8593 50.7759 73 43.719 73 36.5C72.9894 26.8228 69.1405 17.5451 62.2977 10.7023C55.455 3.85949 46.1772 0.0105671 36.5 0ZM36.5 69.5781C29.9578 69.5781 23.5625 67.6381 18.1228 64.0035C12.6831 60.3688 8.44342 55.2027 5.93981 49.1585C3.43621 43.1142 2.78115 36.4633 4.05748 30.0468C5.33381 23.6302 8.48419 17.7363 13.1102 13.1102C17.7363 8.48417 23.6303 5.33379 30.0468 4.05746C36.4633 2.78114 43.1142 3.43619 49.1585 5.9398C55.2027 8.4434 60.3688 12.6831 64.0035 18.1228C67.6381 23.5624 69.5781 29.9578 69.5781 36.5C69.5676 45.2696 66.0792 53.677 59.8781 59.8781C53.6771 66.0792 45.2696 69.5676 36.5 69.5781Z" fill="#E23C27"/>
<path d="M52.5372 20.4115C52.2164 20.0911 51.7815 19.9112 51.3281 19.9112C50.8747 19.9112 50.4399 20.0911 50.1191 20.4115L36.5 34.0762L22.8866 20.3887C22.5652 20.0673 22.1293 19.8867 21.6747 19.8867C21.2202 19.8867 20.7842 20.0673 20.4628 20.3887C20.1414 20.7101 19.9608 21.1461 19.9608 21.6006C19.9608 22.0552 20.1414 22.4911 20.4628 22.8125L34.0819 36.5L20.4628 50.1875C20.1422 50.509 19.9623 50.9446 19.9628 51.3986C19.9634 51.8526 20.1442 52.2879 20.4657 52.6085C20.7871 52.9292 21.2227 53.109 21.6767 53.1085C22.1308 53.108 22.566 52.9271 22.8866 52.6057L36.5 38.9239L50.1191 52.6114C50.4405 52.9328 50.8764 53.1134 51.331 53.1134C51.7855 53.1134 52.2215 52.9328 52.5429 52.6114C52.8643 52.2899 53.0449 51.854 53.0449 51.3995C53.0449 50.9449 52.8643 50.509 52.5429 50.1875L38.9181 36.5L52.5429 22.8125C52.8573 22.4917 53.033 22.0601 53.0319 21.6109C53.0309 21.1616 52.8532 20.7308 52.5372 20.4115Z" fill="#E23C27"/>
</g>
<defs>
<clipPath id="clip0_1459_6601">
<rect width="73" height="73" fill="white"/>
</clipPath>
</defs>
</svg>
