<svg width="152" height="152" viewBox="0 0 152 152" fill="none" xmlns="http://www.w3.org/2000/svg">
<path d="M123.076 51.543L123.076 51.5431C128.846 54.153 133.479 57.1869 136.678 60.3787C139.87 63.5647 141.678 66.9556 141.677 70.2694C141.677 71.1342 141.7 72.0379 141.725 72.9787L141.727 73.0684L141.727 73.0689C141.801 75.9887 141.879 79.1544 141.372 82.11C140.864 85.0748 139.76 87.8736 137.439 90.035L137.437 90.037L137.437 90.037C134.213 93.0044 129.35 94.0222 122.727 93.3011C112.996 92.2442 107.982 89.7642 105.456 86.2746C102.964 82.831 102.997 78.5215 103.031 74.1232L103.032 74.0249L103.032 74.0235L103.039 72.4433C103.039 72.443 103.039 72.4427 103.039 72.4424C103.039 72.1996 102.96 71.7419 102.447 71.1747C101.925 70.5964 100.942 69.8942 99.1144 69.2179C95.4534 67.8629 88.539 66.6606 75.5939 66.6606C67.1456 66.6606 60.4812 67.1715 55.7743 68.1702C54.2886 68.4855 52.3277 69.0002 50.749 69.7527C49.9589 70.1293 49.2932 70.5522 48.8313 71.0169C48.3737 71.4774 48.144 71.9484 48.1437 72.4421C48.1437 72.4425 48.1437 72.4429 48.1437 72.4433L48.1513 74.0492L48.1513 74.0504L48.1519 74.1379C48.1833 78.5327 48.2141 82.8395 45.7172 86.2808C43.1892 89.7649 38.177 92.2417 28.4531 93.2986C21.8299 94.0197 16.9721 93.0017 13.7433 90.0293L13.7432 90.0292C11.4098 87.8798 10.3057 85.0775 9.80003 82.1076C9.29676 79.152 9.37926 75.9838 9.45518 73.0686L9.45555 73.0544L123.076 51.543ZM123.076 51.543C110.382 45.8036 93.5168 42.6531 75.5914 42.6531C57.6712 42.6531 40.8086 45.801 28.1168 51.543M123.076 51.543L28.1168 51.543M137.132 73.1858L137.132 73.1857L137.13 73.0905C137.105 72.1236 137.081 71.1778 137.081 70.2694V70.2691C137.083 68.153 135.624 65.6421 132.835 63.0601C130.066 60.4964 126.066 57.9395 121.179 55.729C109.102 50.2687 92.9116 47.2483 75.5864 47.2483C75.5864 47.2483 75.5863 47.2483 75.5863 47.2483M137.132 73.1858L75.5863 46.7483V47.2483M137.132 73.1858C137.196 75.6863 137.262 78.2983 136.941 80.6618C136.619 83.0273 135.919 85.0665 134.512 86.473C134.445 86.5399 134.386 86.599 134.326 86.6547C132.256 88.5546 128.581 89.3153 123.224 88.7397M137.132 73.1858L123.224 88.7397M75.5863 47.2483C58.2685 47.2508 42.0834 50.2662 30.0062 55.7315L30.0058 55.7317C25.1166 57.9396 21.1172 60.497 18.349 63.061C15.5611 65.6433 14.104 68.1542 14.104 70.2669C14.104 71.205 14.0784 72.1824 14.0504 73.1806C13.9853 75.7365 13.9178 78.4093 14.2632 80.8138C14.6088 83.2197 15.3576 85.2755 16.8588 86.6569L16.5203 87.0248L16.8589 86.6569C18.9262 88.5594 22.6036 89.323 27.9585 88.7398L27.9587 88.7398C36.0193 87.865 39.8552 86.1792 41.7193 83.8278C42.6476 82.6568 43.1188 81.2815 43.3513 79.6615C43.5853 78.0307 43.5734 76.1889 43.5587 74.0893L43.5587 74.0881L43.551 72.4533L43.551 72.4512C43.5496 70.2848 44.5593 68.4589 46.4786 66.9981C48.3796 65.5514 51.1808 64.453 54.8218 63.6807L54.8219 63.6807C59.8777 62.6099 66.8739 62.0706 75.5964 62.0731C75.5965 62.0731 75.5966 62.0731 75.5966 62.0731M75.5863 47.2483L75.5965 62.5731L75.5966 62.0731M75.5966 62.0731C86.3631 62.0718 94.3102 62.856 99.5818 64.5076C102.219 65.3338 104.227 66.3892 105.581 67.7074C106.95 69.0393 107.637 70.6267 107.639 72.4529L107.639 72.4566L107.629 74.0686L107.629 74.0695C107.612 76.1717 107.598 78.0159 107.831 79.6488C108.062 81.271 108.532 82.6482 109.46 83.8208C111.323 86.1754 115.16 87.8637 123.224 88.7397M75.5966 62.0731L123.224 88.7397M28.1168 51.543C22.3266 54.1605 17.6836 57.2015 14.4836 60.4016M28.1168 51.543L14.4836 60.4016M14.4836 60.4016C11.3054 63.5798 9.5041 66.9639 9.50626 70.2582M14.4836 60.4016L9.50626 70.2582M9.50626 70.2582C9.50406 71.0349 9.4846 71.8443 9.46444 72.6828C9.46148 72.8056 9.45851 72.9291 9.45558 73.0532L9.50626 70.2582Z" fill="white" stroke="white"/>
</svg>
