<svg width="19" height="18" viewBox="0 0 19 18" fill="none" xmlns="http://www.w3.org/2000/svg">
<path fill-rule="evenodd" clip-rule="evenodd" d="M2.46117 3.43771L5.26167 0.637207L6.24042 1.61596L2.4503 5.40608L0.0656738 3.02183L1.05567 2.03183L2.46117 3.43771ZM18.0072 3.73996H7.5098V2.25158H18.0072V3.73996Z" fill="#F7634F"/>
<path fill-rule="evenodd" clip-rule="evenodd" d="M2.46117 3.43771L5.26167 0.637207L6.24042 1.61596L2.4503 5.40608L0.0656738 3.02183L1.05567 2.03183L2.46117 3.43771ZM18.0072 3.73996H7.5098V2.25158H18.0072V3.73996Z" fill="#F7634F"/>
<path fill-rule="evenodd" clip-rule="evenodd" d="M2.46117 15.4377L5.26167 12.6372L6.24042 13.616L2.4503 17.4061L0.0656738 15.0218L1.05567 14.0318L2.46117 15.4377ZM18.0072 15.74H7.5098V14.2516H18.0072V15.74Z" fill="#F7634F"/>
<path fill-rule="evenodd" clip-rule="evenodd" d="M2.46117 15.4377L5.26167 12.6372L6.24042 13.616L2.4503 17.4061L0.0656738 15.0218L1.05567 14.0318L2.46117 15.4377ZM18.0072 15.74H7.5098V14.2516H18.0072V15.74Z" fill="#F7634F"/>
<path fill-rule="evenodd" clip-rule="evenodd" d="M2.46117 9.43771L5.26167 6.63721L6.24042 7.61596L2.4503 11.4061L0.0656738 9.02183L1.05567 8.03183L2.46117 9.43771ZM18.0072 9.73996H7.5098V8.25158H18.0072V9.73996Z" fill="#F7634F"/>
<path fill-rule="evenodd" clip-rule="evenodd" d="M2.46117 9.43771L5.26167 6.63721L6.24042 7.61596L2.4503 11.4061L0.0656738 9.02183L1.05567 8.03183L2.46117 9.43771ZM18.0072 9.73996H7.5098V8.25158H18.0072V9.73996Z" fill="#F7634F"/>
</svg>
