<svg width="65" height="100" viewBox="0 0 65 100" fill="none" xmlns="http://www.w3.org/2000/svg">
<path d="M35 82.375V95H52.5C53.875 95 55 96.125 55 97.5C55 98.875 53.875 100 52.5 100H12.5C11.125 100 10 98.875 10 97.5C10 96.125 11.125 95 12.5 95H30V82.375C13.25 81.125 0 67 0 50C0 48.625 1.125 47.5 2.5 47.5C3.875 47.5 5 48.625 5 50C5 65.125 17.375 77.5 32.5 77.5C47.625 77.5 60 65.125 60 50C60 48.625 61.125 47.5 62.5 47.5C63.875 47.5 65 48.625 65 50C65 67.125 51.75 81.125 35 82.375ZM51.25 18.75V50C51.25 60.375 42.875 68.75 32.5 68.75C22.125 68.75 13.75 60.375 13.75 50V18.75C13.75 8.375 22.125 0 32.5 0C42.875 0 51.25 8.375 51.25 18.75ZM46.25 18.75C46.25 11.125 40.125 5 32.5 5C24.875 5 18.75 11.125 18.75 18.75V50C18.75 57.625 24.875 63.75 32.5 63.75C40.125 63.75 46.25 57.625 46.25 50V18.75Z" fill="white"/>
</svg>
