<svg width="89" height="89" viewBox="0 0 89 89" fill="none" xmlns="http://www.w3.org/2000/svg">
<ellipse cx="44.8942" cy="44.5" rx="43.9765" ry="44.5" fill="url(#paint0_radial_1323_5255)"/>
<g clip-path="url(#clip0_1323_5255)">
<mask id="mask0_1323_5255" style="mask-type:luminance" maskUnits="userSpaceOnUse" x="17" y="18" width="54" height="54">
<path d="M71 18H17V72H71V18Z" fill="white"/>
</mask>
<g mask="url(#mask0_1323_5255)">
<g filter="url(#filter0_dd_1323_5255)">
<path fill-rule="evenodd" clip-rule="evenodd" d="M33.875 24.75C34.4963 24.75 35 25.2537 35 25.875C35 27.739 36.5111 29.25 38.375 29.25H49.625C51.489 29.25 53 27.739 53 25.875C53 25.2537 53.5037 24.75 54.125 24.75H57.5C59.9851 24.75 61.9999 26.7647 61.9999 29.25V65.25C61.9999 67.7351 59.9851 69.7499 57.5 69.7499H30.5C28.0147 69.7499 26 67.7351 26 65.25V29.25C26 26.7647 28.0147 24.75 30.5 24.75H33.875Z" fill="white"/>
</g>
<g filter="url(#filter1_dd_1323_5255)">
<path fill-rule="evenodd" clip-rule="evenodd" d="M41.75 22.4998C41.75 21.2571 42.7574 20.2498 44 20.2498C45.2426 20.2498 46.25 21.2571 46.25 22.4998H49.625C50.2463 22.4998 50.75 23.0034 50.75 23.6247V25.8748C50.75 26.4961 50.2463 26.9997 49.625 26.9997H38.375C37.7537 26.9997 37.25 26.4961 37.25 25.8748V23.6247C37.25 23.0034 37.7537 22.4998 38.375 22.4998H41.75Z" fill="white"/>
</g>
<path d="M41.75 40.4998H35C33.7574 40.4998 32.75 41.5071 32.75 42.7498C32.75 43.9924 33.7574 44.9998 35 44.9998H41.75C42.9927 44.9998 44 43.9924 44 42.7498C44 41.5071 42.9927 40.4998 41.75 40.4998Z" fill="#FFF5F2"/>
<path d="M50.75 49.5002H35C33.7574 49.5002 32.75 50.5076 32.75 51.7503C32.75 52.9929 33.7574 54.0002 35 54.0002H50.75C51.9927 54.0002 53 52.9929 53 51.7503C53 50.5076 51.9927 49.5002 50.75 49.5002Z" fill="#FFF5F2"/>
</g>
</g>
<defs>
<filter id="filter0_dd_1323_5255" x="-54" y="-47.25" width="196" height="205" filterUnits="userSpaceOnUse" color-interpolation-filters="sRGB">
<feFlood flood-opacity="0" result="BackgroundImageFix"/>
<feColorMatrix in="SourceAlpha" type="matrix" values="0 0 0 0 0 0 0 0 0 0 0 0 0 0 0 0 0 0 127 0" result="hardAlpha"/>
<feOffset dy="12"/>
<feGaussianBlur stdDeviation="6"/>
<feColorMatrix type="matrix" values="0 0 0 0 0 0 0 0 0 0 0 0 0 0 0 0 0 0 0.02 0"/>
<feBlend mode="normal" in2="BackgroundImageFix" result="effect1_dropShadow_1323_5255"/>
<feColorMatrix in="SourceAlpha" type="matrix" values="0 0 0 0 0 0 0 0 0 0 0 0 0 0 0 0 0 0 127 0" result="hardAlpha"/>
<feOffset dy="8"/>
<feGaussianBlur stdDeviation="40"/>
<feColorMatrix type="matrix" values="0 0 0 0 0 0 0 0 0 0 0 0 0 0 0 0 0 0 0.08 0"/>
<feBlend mode="normal" in2="effect1_dropShadow_1323_5255" result="effect2_dropShadow_1323_5255"/>
<feBlend mode="normal" in="SourceGraphic" in2="effect2_dropShadow_1323_5255" result="shape"/>
</filter>
<filter id="filter1_dd_1323_5255" x="-42.75" y="-51.7502" width="173.5" height="166.75" filterUnits="userSpaceOnUse" color-interpolation-filters="sRGB">
<feFlood flood-opacity="0" result="BackgroundImageFix"/>
<feColorMatrix in="SourceAlpha" type="matrix" values="0 0 0 0 0 0 0 0 0 0 0 0 0 0 0 0 0 0 127 0" result="hardAlpha"/>
<feOffset dy="12"/>
<feGaussianBlur stdDeviation="6"/>
<feColorMatrix type="matrix" values="0 0 0 0 0 0 0 0 0 0 0 0 0 0 0 0 0 0 0.02 0"/>
<feBlend mode="normal" in2="BackgroundImageFix" result="effect1_dropShadow_1323_5255"/>
<feColorMatrix in="SourceAlpha" type="matrix" values="0 0 0 0 0 0 0 0 0 0 0 0 0 0 0 0 0 0 127 0" result="hardAlpha"/>
<feOffset dy="8"/>
<feGaussianBlur stdDeviation="40"/>
<feColorMatrix type="matrix" values="0 0 0 0 0 0 0 0 0 0 0 0 0 0 0 0 0 0 0.08 0"/>
<feBlend mode="normal" in2="effect1_dropShadow_1323_5255" result="effect2_dropShadow_1323_5255"/>
<feBlend mode="normal" in="SourceGraphic" in2="effect2_dropShadow_1323_5255" result="shape"/>
</filter>
<radialGradient id="paint0_radial_1323_5255" cx="0" cy="0" r="1" gradientUnits="userSpaceOnUse" gradientTransform="translate(44.8942 44.5) rotate(90) scale(44.5 43.9765)">
<stop offset="0.0833333" stop-color="#E84832" stop-opacity="0"/>
<stop offset="0.796875" stop-color="#E84832"/>
</radialGradient>
<clipPath id="clip0_1323_5255">
<rect width="53.3647" height="54" fill="white" transform="translate(17.7178 18)"/>
</clipPath>
</defs>
</svg>
