<svg width="12" height="12" viewBox="0 0 12 12" fill="none" xmlns="http://www.w3.org/2000/svg">
<circle cx="6" cy="6" r="6" fill="#FFBB33"/>
<path d="M6 10C5.20888 10 4.43552 9.76541 3.77772 9.32588C3.11992 8.88636 2.60723 8.26164 2.30448 7.53074C2.00173 6.79983 1.92252 5.99557 2.07686 5.21964C2.2312 4.44372 2.61216 3.73099 3.17157 3.17157C3.73099 2.61216 4.44372 2.2312 5.21964 2.07686C5.99557 1.92252 6.79983 2.00173 7.53074 2.30448C8.26164 2.60723 8.88636 3.11992 9.32588 3.77772C9.76541 4.43552 10 5.20888 10 6C10 7.06087 9.57858 8.07828 8.82843 8.82843C8.07828 9.57858 7.06087 10 6 10ZM6 2.61539C5.33059 2.61539 4.67621 2.81389 4.11961 3.1858C3.56301 3.5577 3.1292 4.08631 2.87303 4.70477C2.61685 5.32322 2.54982 6.00376 2.68042 6.66031C2.81102 7.31686 3.13337 7.91994 3.60672 8.39329C4.08006 8.86663 4.68315 9.18899 5.3397 9.31958C5.99625 9.45018 6.67678 9.38315 7.29524 9.12698C7.9137 8.87081 8.4423 8.43699 8.81421 7.88039C9.18611 7.3238 9.38462 6.66942 9.38462 6C9.38462 5.10235 9.02803 4.24146 8.39329 3.60672C7.75855 2.97198 6.89766 2.61539 6 2.61539Z" fill="white"/>
<path d="M7.69227 7.99994C7.65177 8.00018 7.61163 7.99242 7.57414 7.97711C7.53665 7.96179 7.50256 7.93923 7.47381 7.91071L5.7815 6.21841C5.75298 6.18965 5.73042 6.15556 5.71511 6.11807C5.69979 6.08058 5.69203 6.04044 5.69227 5.99994V3.53841C5.69227 3.4568 5.72468 3.37854 5.78239 3.32083C5.84009 3.26313 5.91835 3.23071 5.99996 3.23071C6.08156 3.23071 6.15983 3.26313 6.21753 3.32083C6.27523 3.37854 6.30765 3.4568 6.30765 3.53841V5.87379L7.91073 7.47379C7.93957 7.5024 7.96246 7.53643 7.97808 7.57392C7.9937 7.61142 8.00174 7.65163 8.00174 7.69225C8.00174 7.73287 7.9937 7.77309 7.97808 7.81058C7.96246 7.84808 7.93957 7.88211 7.91073 7.91071C7.88198 7.93923 7.84788 7.96179 7.81039 7.97711C7.7729 7.99242 7.73276 8.00018 7.69227 7.99994Z" fill="white"/>
</svg>
