<svg width="131" height="83" viewBox="0 0 131 83" fill="none" xmlns="http://www.w3.org/2000/svg">
<path d="M125.417 0.688156L96.3419 19.4404V13.7631C96.3419 6.19341 90.1485 0 82.5788 0H13.7631C6.19341 0 0 6.19341 0 13.7631V68.8157C0 76.3854 6.19341 82.5788 13.7631 82.5788H82.5788C90.1485 82.5788 96.3419 76.3854 96.3419 68.8157V63.1384L125.417 81.8906C128.685 83.611 130.75 80.6864 130.75 78.966V3.44078C130.75 1.72039 128.857 -1.37631 125.417 0.688156ZM89.4604 68.8157C89.4604 72.6005 86.3637 75.6972 82.5788 75.6972H13.7631C9.97827 75.6972 6.88157 72.6005 6.88157 68.8157V13.7631C6.88157 9.97827 9.97827 6.88157 13.7631 6.88157H82.5788C86.3637 6.88157 89.4604 9.97827 89.4604 13.7631V68.8157ZM123.868 72.7726L96.3419 55.0525V27.5263L123.868 9.80623V72.7726Z" fill="white"/>
</svg>
