<svg width="131" height="116" viewBox="0 0 131 116" fill="none" xmlns="http://www.w3.org/2000/svg">
<path d="M125.417 17.6882L96.3419 36.4404V30.7631C96.3419 23.1934 90.1485 17 82.5788 17H13.7631C6.19341 17 0 23.1934 0 30.7631V85.8157C0 93.3854 6.19341 99.5788 13.7631 99.5788H82.5788C90.1485 99.5788 96.3419 93.3854 96.3419 85.8157V80.1384L125.417 98.8906C128.685 100.611 130.75 97.6864 130.75 95.966V20.4408C130.75 18.7204 128.857 15.6237 125.417 17.6882ZM89.4604 85.8157C89.4604 89.6005 86.3637 92.6972 82.5788 92.6972H13.7631C9.97827 92.6972 6.88157 89.6005 6.88157 85.8157V30.7631C6.88157 26.9783 9.97827 23.8816 13.7631 23.8816H82.5788C86.3637 23.8816 89.4604 26.9783 89.4604 30.7631V85.8157ZM123.868 89.7726L96.3419 72.0525V44.5263L123.868 26.8062V89.7726Z" fill="white"/>
<path d="M114 6.17432L15 109.174" stroke="white" stroke-width="6" stroke-linecap="round"/>
</svg>
