<svg width="94" height="126" viewBox="0 0 94 126" fill="none" xmlns="http://www.w3.org/2000/svg">
<path d="M48.8281 57.2915H70.3124C70.8304 57.2915 71.3272 57.0857 71.6935 56.7194C72.0598 56.3532 72.2656 55.8564 72.2656 55.3384C72.2656 54.8204 72.0598 54.3236 71.6935 53.9573C71.3272 53.591 70.8304 53.3853 70.3124 53.3853H48.8281C48.3101 53.3853 47.8133 53.591 47.4471 53.9573C47.0808 54.3236 46.875 54.8204 46.875 55.3384C46.875 55.8564 47.0808 56.3532 47.4471 56.7194C47.8133 57.0857 48.3101 57.2915 48.8281 57.2915Z" fill="#898989"/>
<path d="M48.8281 69.0102H64.4531C64.9711 69.0102 65.4679 68.8045 65.8342 68.4382C66.2004 68.0719 66.4062 67.5751 66.4062 67.0571C66.4062 66.5391 66.2004 66.0423 65.8342 65.6761C65.4679 65.3098 64.9711 65.104 64.4531 65.104H48.8281C48.3101 65.104 47.8133 65.3098 47.4471 65.6761C47.0808 66.0423 46.875 66.5391 46.875 67.0571C46.875 67.5751 47.0808 68.0719 47.4471 68.4382C47.8133 68.8045 48.3101 69.0102 48.8281 69.0102Z" fill="#898989"/>
<path d="M29.2991 68.8153C29.6653 69.1786 30.1603 69.3822 30.6761 69.3818H30.764C31.0435 69.3778 31.319 69.3138 31.5717 69.1942C31.8244 69.0746 32.0485 68.9021 32.2288 68.6884L42.512 56.3154C42.6904 56.1211 42.8277 55.8927 42.9154 55.644C43.0032 55.3952 43.0397 55.1312 43.0226 54.868C43.0056 54.6048 42.9354 54.3477 42.8163 54.1124C42.6972 53.877 42.5317 53.6682 42.3297 53.4985C42.1277 53.3289 41.8934 53.2019 41.641 53.1253C41.3886 53.0486 41.1233 53.0239 40.8611 53.0526C40.5989 53.0813 40.3452 53.1628 40.1153 53.2922C39.8855 53.4217 39.6842 53.5963 39.5237 53.8056L30.5491 64.5478L24.8167 58.8251C24.4446 58.4891 23.9575 58.3091 23.4563 58.3223C22.9551 58.3355 22.4782 58.541 22.1243 58.8962C21.7704 59.2513 21.5666 59.7289 21.5552 60.2302C21.5438 60.7314 21.7255 61.2179 22.0628 61.5888L29.2991 68.8153Z" fill="#898989"/>
<path d="M70.3124 84.6352H48.8281C48.3101 84.6352 47.8133 84.4295 47.4471 84.0632C47.0808 83.6969 46.875 83.2001 46.875 82.6821C46.875 82.1641 47.0808 81.6673 47.4471 81.3011C47.8133 80.9348 48.3101 80.729 48.8281 80.729H70.3124C70.8304 80.729 71.3272 80.9348 71.6935 81.3011C72.0598 81.6673 72.2656 82.1641 72.2656 82.6821C72.2656 83.2001 72.0598 83.6969 71.6935 84.0632C71.3272 84.4295 70.8304 84.6352 70.3124 84.6352Z" fill="#898989"/>
<path d="M64.4531 96.354H48.8281C48.3101 96.354 47.8133 96.1482 47.4471 95.7819C47.0808 95.4157 46.875 94.9189 46.875 94.4009C46.875 93.8829 47.0808 93.3861 47.4471 93.0198C47.8133 92.6535 48.3101 92.4478 48.8281 92.4478H64.4531C64.9711 92.4478 65.4679 92.6535 65.8342 93.0198C66.2004 93.3861 66.4062 93.8829 66.4062 94.4009C66.4062 94.9189 66.2004 95.4157 65.8342 95.7819C65.4679 96.1482 64.9711 96.354 64.4531 96.354Z" fill="#898989"/>
<path d="M30.6725 96.7248C30.1567 96.7252 29.6618 96.5216 29.2956 96.1584L22.0593 88.9221C21.8629 88.7448 21.7046 88.5294 21.594 88.2891C21.4833 88.0488 21.4227 87.7885 21.4157 87.524C21.4087 87.2595 21.4556 86.9963 21.5534 86.7505C21.6512 86.5047 21.7979 86.2813 21.9847 86.0939C22.1714 85.9064 22.3943 85.7589 22.6398 85.6603C22.8853 85.5616 23.1482 85.5138 23.4127 85.5199C23.6773 85.5259 23.9378 85.5856 24.1785 85.6954C24.4192 85.8052 24.6352 85.9627 24.8132 86.1584L30.5456 91.8811L39.5202 81.1389C39.8543 80.7426 40.3321 80.4953 40.8486 80.4514C41.365 80.4074 41.8778 80.5704 42.2741 80.9045C42.6703 81.2387 42.9176 81.7165 42.9616 82.233C43.0055 82.7494 42.8425 83.2622 42.5084 83.6584L32.2252 96.0315C32.0504 96.2391 31.8341 96.408 31.5903 96.5274C31.3465 96.6468 31.0805 96.714 30.8092 96.7248H30.6725Z" fill="#898989"/>
<path d="M91.9236 9.46419C90.7628 8.39755 89.2423 7.80816 87.6658 7.81381H56.4159C56.0555 6.04088 55.2181 4.39991 53.994 3.06772C53.075 2.0877 51.9625 1.30913 50.7269 0.781307C49.4914 0.253478 48.1598 -0.0121193 46.8163 0.00132394C44.5468 -0.0362238 42.3365 0.725934 40.5724 2.15429C38.8084 3.58265 37.6032 5.58614 37.1679 7.81381H5.85936C4.30536 7.81381 2.81501 8.43113 1.71617 9.52997C0.617323 10.6288 0 12.1192 0 13.6732V119.142C0 120.696 0.617323 122.186 1.71617 123.285C2.81501 124.384 4.30536 125.001 5.85936 125.001H87.8904C88.6621 125.009 89.4275 124.863 90.1419 124.571C90.8564 124.279 91.5054 123.848 92.0511 123.302C92.5967 122.757 93.028 122.108 93.3197 121.393C93.6114 120.679 93.7576 119.913 93.7498 119.142V13.6732C93.7528 12.8835 93.5921 12.1017 93.2778 11.3773C92.9635 10.6529 92.5024 10.0014 91.9236 9.46419ZM38.9257 11.72C39.4437 11.72 39.9405 11.5143 40.3068 11.148C40.673 10.7817 40.8788 10.2849 40.8788 9.76693C40.8666 8.98747 41.0125 8.21362 41.3075 7.49206C41.6026 6.77051 42.0408 6.11621 42.5956 5.56864C43.1505 5.02108 43.8106 4.5916 44.536 4.30611C45.2614 4.02062 46.0371 3.88505 46.8163 3.90756C47.6295 3.88451 48.4384 4.03452 49.1892 4.34767C49.9401 4.66081 50.6159 5.12994 51.1718 5.72397C52.1744 6.83214 52.7311 8.27246 52.7343 9.76693C52.7343 10.2849 52.94 10.7817 53.3063 11.148C53.6726 11.5143 54.1694 11.72 54.6874 11.72H66.4061V23.4388H27.3437V11.72H38.9257ZM89.8435 119.142C89.8435 119.66 89.6378 120.156 89.2715 120.523C88.9052 120.889 88.4084 121.095 87.8904 121.095H5.85936C5.34136 121.095 4.84458 120.889 4.4783 120.523C4.11202 120.156 3.90624 119.66 3.90624 119.142V13.6732C3.90624 13.1552 4.11202 12.6584 4.4783 12.2921C4.84458 11.9258 5.34136 11.72 5.85936 11.72H23.4374V25.3919C23.4374 25.9099 23.6432 26.4067 24.0095 26.773C24.3758 27.1392 24.8726 27.345 25.3906 27.345H68.3592C68.8772 27.345 69.374 27.1392 69.7403 26.773C70.1066 26.4067 70.3123 25.9099 70.3123 25.3919V11.72H87.6658C88.2526 11.7105 88.8212 11.9233 89.2576 12.3157C89.4455 12.4879 89.5948 12.6978 89.6958 12.9318C89.7968 13.1657 89.8471 13.4184 89.8435 13.6732V119.142Z" fill="#898989"/>
</svg>
