<svg width="33" height="33" viewBox="0 0 33 33" fill="none" xmlns="http://www.w3.org/2000/svg">
<path d="M33 16.5C33 25.6127 25.6127 33 16.5 33C7.3873 33 0 25.6127 0 16.5C0 7.3873 7.3873 0 16.5 0C25.6127 0 33 7.3873 33 16.5Z" fill="url(#paint0_linear_1354_5708)"/>
<path d="M11.2413 6.82764C10.689 6.82764 10.2413 7.27535 10.2413 7.82764V25.9604C10.2413 26.5127 10.689 26.9604 11.2413 26.9604H13.7693C14.3216 26.9604 14.7693 26.5127 14.7693 25.9604V22.039L16.5809 19.8021L20.3686 26.4551C20.5464 26.7675 20.8782 26.9604 21.2376 26.9604H24.0102C24.7557 26.9604 25.239 26.174 24.9025 25.5089L19.9969 15.8147C19.8435 15.5114 19.8546 15.1509 20.0264 14.8576L23.8493 8.33318C24.2399 7.66654 23.7592 6.82764 22.9865 6.82764H20.3134C19.964 6.82764 19.64 7.00997 19.4587 7.30858L15.6755 13.5385H17.4864L12.5057 20.6969L14.3166 15.7755H13.4111L14.5948 7.97771C14.6866 7.37257 14.2182 6.82764 13.6061 6.82764H11.2413Z" fill="#FDF3F0"/>
<defs>
<linearGradient id="paint0_linear_1354_5708" x1="16" y1="-14" x2="16.5" y2="33" gradientUnits="userSpaceOnUse">
<stop stop-color="#F9B19B"/>
<stop offset="1" stop-color="#E23C27"/>
</linearGradient>
</defs>
</svg>
