<svg width="19" height="19" viewBox="0 0 19 19" fill="none" xmlns="http://www.w3.org/2000/svg">
<path d="M18.8583 8.93898L17.1275 7.2082L10.2311 0.304372C10.1346 0.207875 10.02 0.131328 9.89397 0.0791041C9.7679 0.0268797 9.63278 0 9.49631 0C9.35985 0 9.22473 0.0268797 9.09866 0.0791041C8.97259 0.131328 8.85804 0.207875 8.76155 0.304372L1.85475 7.20375L0.119517 8.93898C0.040857 9.0234 -0.00196613 9.13505 6.93779e-05 9.25042C0.00210488 9.36578 0.0488401 9.47586 0.130429 9.55744C0.212018 9.63903 0.322091 9.68577 0.437457 9.6878C0.552823 9.68984 0.664476 9.64702 0.748892 9.56836L1.72413 8.59312V17.961C1.72413 18.2366 1.8336 18.5009 2.02846 18.6957C2.22332 18.8906 2.48761 19.0001 2.76319 19.0001H6.81702C7.09259 19.0001 7.35688 18.8906 7.55175 18.6957C7.74661 18.5009 7.85608 18.2366 7.85608 17.961V12.0235C7.85608 11.9841 7.87172 11.9464 7.89956 11.9186C7.92739 11.8907 7.96515 11.8751 8.00452 11.8751H10.9733C11.0126 11.8751 11.0504 11.8907 11.0782 11.9186C11.1061 11.9464 11.1217 11.9841 11.1217 12.0235V17.961C11.1217 18.2366 11.2312 18.5009 11.426 18.6957C11.6209 18.8906 11.8852 19.0001 12.1608 19.0001H16.219C16.3555 19.0001 16.4906 18.9732 16.6167 18.921C16.7427 18.8688 16.8573 18.7922 16.9538 18.6957C17.0503 18.5993 17.1268 18.4847 17.179 18.3586C17.2312 18.2326 17.2581 18.0975 17.2581 17.961V8.59757L18.2289 9.56836C18.3133 9.64702 18.425 9.68984 18.5403 9.6878C18.6557 9.68577 18.7658 9.63903 18.8474 9.55744C18.9289 9.47586 18.9757 9.36578 18.9777 9.25042C18.9797 9.13505 18.9369 9.0234 18.8583 8.93898ZM16.3675 17.961C16.3675 18.0004 16.3518 18.0381 16.324 18.066C16.2962 18.0938 16.2584 18.1094 16.219 18.1094H12.1608C12.1214 18.1094 12.0836 18.0938 12.0558 18.066C12.028 18.0381 12.0123 18.0004 12.0123 17.961V12.0235C12.0123 11.7479 11.9029 11.4836 11.708 11.2888C11.5131 11.0939 11.2488 10.9844 10.9733 10.9844H8.00452C7.72894 10.9844 7.46465 11.0939 7.26979 11.2888C7.07493 11.4836 6.96545 11.7479 6.96545 12.0235V17.961C6.96545 18.0004 6.94982 18.0381 6.92198 18.066C6.89414 18.0938 6.85639 18.1094 6.81702 18.1094H2.76319C2.72382 18.1094 2.68607 18.0938 2.65823 18.066C2.63039 18.0381 2.61475 18.0004 2.61475 17.961V7.70398L9.3835 0.933747C9.41131 0.9061 9.44893 0.890582 9.48815 0.890582C9.52736 0.890582 9.56499 0.9061 9.5928 0.933747L16.366 7.70695L16.3675 17.961Z" fill="#F7634F"/>
</svg>
