<svg width="19" height="19" viewBox="0 0 19 19" fill="none" xmlns="http://www.w3.org/2000/svg">
<path d="M9.5 9.5C10.322 9.5 11.1256 9.25624 11.8091 8.79955C12.4926 8.34285 13.0253 7.69373 13.3399 6.93428C13.6545 6.17482 13.7368 5.33914 13.5764 4.53291C13.416 3.72667 13.0202 2.9861 12.4389 2.40484C11.8577 1.82358 11.1171 1.42773 10.3108 1.26736C9.50461 1.10699 8.66893 1.1893 7.90947 1.50388C7.15002 1.81845 6.5009 2.35117 6.0442 3.03466C5.58751 3.71815 5.34375 4.52172 5.34375 5.34375C5.34375 6.44606 5.78164 7.50322 6.56109 8.28266C7.34054 9.06211 8.39769 9.5 9.5 9.5ZM9.5 2.375C10.0872 2.375 10.6611 2.54912 11.1493 2.87533C11.6376 3.20154 12.0181 3.66519 12.2428 4.20766C12.4675 4.75013 12.5263 5.34704 12.4117 5.92293C12.2972 6.49881 12.0144 7.02779 11.5992 7.44297C11.184 7.85816 10.6551 8.14091 10.0792 8.25546C9.50329 8.37001 8.90638 8.31122 8.36391 8.08652C7.82144 7.86182 7.35779 7.48131 7.03157 6.9931C6.70536 6.50489 6.53125 5.93091 6.53125 5.34375C6.53125 4.55639 6.84403 3.80128 7.40078 3.24453C7.95753 2.68778 8.71264 2.375 9.5 2.375Z" fill="#F7634F" fill-opacity="0.85"/>
<path d="M10.0938 10.6875H8.90625C7.17406 10.6875 5.51281 11.3756 4.28796 12.6005C3.06311 13.8253 2.375 15.4866 2.375 17.2188C2.375 17.3762 2.43756 17.5272 2.54891 17.6386C2.66026 17.7499 2.81128 17.8125 2.96875 17.8125H16.0312C16.1887 17.8125 16.3397 17.7499 16.4511 17.6386C16.5624 17.5272 16.625 17.3762 16.625 17.2188C16.625 15.4866 15.9369 13.8253 14.712 12.6005C13.4872 11.3756 11.8259 10.6875 10.0938 10.6875ZM3.59812 16.625C3.74413 15.3191 4.36615 14.1128 5.34534 13.2366C6.32453 12.3604 7.59225 11.8756 8.90625 11.875H10.0938C11.4078 11.8756 12.6755 12.3604 13.6547 13.2366C14.6339 14.1128 15.2559 15.3191 15.4019 16.625H3.59812Z" fill="#F7634F" fill-opacity="0.85"/>
</svg>
