<svg width="24" height="24" viewBox="0 0 24 24" fill="none" xmlns="http://www.w3.org/2000/svg">
<path d="M23.0211 4.54746L17.6842 7.98956V6.94746C17.6842 5.55798 16.5474 4.42114 15.1579 4.42114H2.52632C1.13684 4.42114 0 5.55798 0 6.94746V17.0527C0 18.4422 1.13684 19.579 2.52632 19.579H15.1579C16.5474 19.579 17.6842 18.4422 17.6842 17.0527V16.0106L23.0211 19.4527C23.6211 19.7685 24 19.2317 24 18.9159V5.05272C24 4.73693 23.6526 4.16851 23.0211 4.54746ZM16.4211 17.0527C16.4211 17.7475 15.8526 18.3159 15.1579 18.3159H2.52632C1.83158 18.3159 1.26316 17.7475 1.26316 17.0527V6.94746C1.26316 6.25272 1.83158 5.6843 2.52632 5.6843H15.1579C15.8526 5.6843 16.4211 6.25272 16.4211 6.94746V17.0527ZM22.7368 17.779L17.6842 14.5264V9.47377L22.7368 6.22114V17.779Z" fill="#F7634F" fill-opacity="0.85"/>
</svg>
