<svg width="15" height="20" viewBox="0 0 15 20" fill="none" xmlns="http://www.w3.org/2000/svg">
<path d="M7.8125 9.1665H11.25C11.3329 9.1665 11.4124 9.13358 11.471 9.07497C11.5296 9.01637 11.5625 8.93688 11.5625 8.854C11.5625 8.77112 11.5296 8.69164 11.471 8.63303C11.4124 8.57443 11.3329 8.5415 11.25 8.5415H7.8125C7.72962 8.5415 7.65013 8.57443 7.59153 8.63303C7.53292 8.69164 7.5 8.77112 7.5 8.854C7.5 8.93688 7.53292 9.01637 7.59153 9.07497C7.65013 9.13358 7.72962 9.1665 7.8125 9.1665Z" fill="#F7634F"/>
<path d="M7.8125 11.0415H10.3125C10.3954 11.0415 10.4749 11.0086 10.5335 10.95C10.5921 10.8914 10.625 10.8119 10.625 10.729C10.625 10.6461 10.5921 10.5666 10.5335 10.508C10.4749 10.4494 10.3954 10.4165 10.3125 10.4165H7.8125C7.72962 10.4165 7.65013 10.4494 7.59153 10.508C7.53292 10.5666 7.5 10.6461 7.5 10.729C7.5 10.8119 7.53292 10.8914 7.59153 10.95C7.65013 11.0086 7.72962 11.0415 7.8125 11.0415Z" fill="#F7634F"/>
<path d="M4.68747 11.0105C4.74606 11.0686 4.82526 11.1012 4.90779 11.1011H4.92185C4.96658 11.1005 5.01065 11.0902 5.05108 11.0711C5.09152 11.0519 5.12737 11.0243 5.15622 10.9902L6.80153 9.01047C6.83008 8.97939 6.85204 8.94284 6.86608 8.90304C6.88012 8.86324 6.88596 8.82101 6.88323 8.77889C6.88051 8.73677 6.86928 8.69564 6.85022 8.65799C6.83117 8.62033 6.80468 8.58692 6.77236 8.55977C6.74004 8.53263 6.70256 8.51231 6.66218 8.50005C6.62179 8.48779 6.57934 8.48384 6.53739 8.48843C6.49543 8.49302 6.45484 8.50606 6.41807 8.52677C6.38129 8.54748 6.34909 8.57542 6.32341 8.60891L4.88747 10.3277L3.97029 9.41203C3.91075 9.35827 3.83281 9.32947 3.75262 9.33158C3.67243 9.3337 3.59613 9.36657 3.5395 9.42339C3.48288 9.48022 3.45028 9.55664 3.44845 9.63684C3.44661 9.71704 3.47569 9.79487 3.52966 9.85422L4.68747 11.0105Z" fill="#F7634F"/>
<path d="M11.25 13.5415H7.8125C7.72962 13.5415 7.65013 13.5086 7.59153 13.45C7.53292 13.3914 7.5 13.3119 7.5 13.229C7.5 13.1461 7.53292 13.0666 7.59153 13.008C7.65013 12.9494 7.72962 12.9165 7.8125 12.9165H11.25C11.3329 12.9165 11.4124 12.9494 11.471 13.008C11.5296 13.0666 11.5625 13.1461 11.5625 13.229C11.5625 13.3119 11.5296 13.3914 11.471 13.45C11.4124 13.5086 11.3329 13.5415 11.25 13.5415Z" fill="#F7634F"/>
<path d="M10.3125 15.4165H7.8125C7.72962 15.4165 7.65013 15.3836 7.59153 15.325C7.53292 15.2664 7.5 15.1869 7.5 15.104C7.5 15.0211 7.53292 14.9416 7.59153 14.883C7.65013 14.8244 7.72962 14.7915 7.8125 14.7915H10.3125C10.3954 14.7915 10.4749 14.8244 10.5335 14.883C10.5921 14.9416 10.625 15.0211 10.625 15.104C10.625 15.1869 10.5921 15.2664 10.5335 15.325C10.4749 15.3836 10.3954 15.4165 10.3125 15.4165Z" fill="#F7634F"/>
<path d="M4.90771 15.476C4.82519 15.476 4.74599 15.4435 4.6874 15.3853L3.52959 14.2275C3.49817 14.1992 3.47284 14.1647 3.45514 14.1263C3.43744 14.0878 3.42774 14.0462 3.42662 14.0038C3.42551 13.9615 3.433 13.9194 3.44865 13.8801C3.4643 13.8407 3.48777 13.805 3.51765 13.775C3.54753 13.745 3.58319 13.7214 3.62247 13.7056C3.66175 13.6899 3.70383 13.6822 3.74615 13.6832C3.78847 13.6841 3.83015 13.6937 3.86867 13.7113C3.90718 13.7288 3.94173 13.754 3.97021 13.7853L4.8874 14.701L6.32333 12.9822C6.37679 12.9188 6.45324 12.8793 6.53587 12.8722C6.61851 12.8652 6.70055 12.8913 6.76395 12.9447C6.82736 12.9982 6.86693 13.0746 6.87396 13.1573C6.88099 13.2399 6.85491 13.3219 6.80145 13.3854L5.15615 15.365C5.12816 15.3983 5.09357 15.4253 5.05456 15.4444C5.01555 15.4635 4.97298 15.4742 4.92958 15.476H4.90771Z" fill="#F7634F"/>
<path d="M14.7078 1.51427C14.522 1.34361 14.2787 1.24931 14.0265 1.25021H9.02653C8.96887 0.96654 8.83489 0.703984 8.63903 0.490835C8.49199 0.334032 8.31399 0.209461 8.1163 0.125009C7.91862 0.0405565 7.70556 -0.00193908 7.4906 0.00021183C7.12748 -0.00579581 6.77383 0.116149 6.49158 0.344687C6.20934 0.573224 6.01651 0.893781 5.94686 1.25021H0.937497C0.688857 1.25021 0.450401 1.34898 0.274586 1.52479C0.0987716 1.70061 0 1.93907 0 2.1877V19.0627C0 19.3113 0.0987716 19.5497 0.274586 19.7256C0.450401 19.9014 0.688857 20.0001 0.937497 20.0001H14.0625C14.1859 20.0014 14.3084 19.978 14.4227 19.9313C14.537 19.8847 14.6409 19.8157 14.7282 19.7284C14.8155 19.641 14.8845 19.5372 14.9311 19.4229C14.9778 19.3086 15.0012 19.1861 15 19.0627V2.1877C15.0004 2.06136 14.9747 1.93628 14.9244 1.82037C14.8741 1.70446 14.8004 1.60023 14.7078 1.51427ZM6.22811 1.87521C6.31099 1.87521 6.39047 1.84228 6.44907 1.78368C6.50768 1.72507 6.5406 1.64559 6.5406 1.56271C6.53865 1.43799 6.56199 1.31418 6.6092 1.19873C6.65641 1.08328 6.72652 0.978593 6.8153 0.890982C6.90408 0.803372 7.00968 0.734655 7.12575 0.688977C7.24181 0.643299 7.36592 0.621607 7.4906 0.62521C7.62072 0.621521 7.75013 0.645523 7.87027 0.695626C7.99041 0.745729 8.09853 0.82079 8.18747 0.915834C8.34791 1.09314 8.43697 1.32359 8.43747 1.56271C8.43747 1.64559 8.4704 1.72507 8.529 1.78368C8.58761 1.84228 8.66709 1.87521 8.74997 1.87521H10.625V3.7502H4.37499V1.87521H6.22811ZM14.375 19.0627C14.375 19.1455 14.342 19.225 14.2834 19.2836C14.2248 19.3422 14.1453 19.3752 14.0625 19.3752H0.937497C0.854617 19.3752 0.775132 19.3422 0.716527 19.2836C0.657922 19.225 0.624998 19.1455 0.624998 19.0627V2.1877C0.624998 2.10483 0.657922 2.02534 0.716527 1.96673C0.775132 1.90813 0.854617 1.87521 0.937497 1.87521H3.74999V4.0627C3.74999 4.14558 3.78291 4.22506 3.84152 4.28367C3.90012 4.34227 3.97961 4.3752 4.06249 4.3752H10.9375C11.0203 4.3752 11.0998 4.34227 11.1584 4.28367C11.217 4.22506 11.25 4.14558 11.25 4.0627V1.87521H14.0265C14.1204 1.87368 14.2114 1.90773 14.2812 1.97052C14.3113 1.99806 14.3352 2.03165 14.3513 2.06908C14.3675 2.10651 14.3755 2.14694 14.375 2.1877V19.0627Z" fill="#F7634F"/>
</svg>
