<svg width="31" height="31" viewBox="0 0 31 31" fill="none" xmlns="http://www.w3.org/2000/svg">
<path d="M31 15.5C31 24.0604 24.0604 31 15.5 31C6.93959 31 0 24.0604 0 15.5C0 6.93959 6.93959 0 15.5 0C24.0604 0 31 6.93959 31 15.5Z" fill="url(#paint0_linear_1437_5223)"/>
<path d="M16.9295 21.7663C16.9061 21.7678 16.8826 21.7678 16.8591 21.7663C16.7782 21.7558 16.7009 21.7273 16.6331 21.683C16.5652 21.6388 16.5088 21.58 16.468 21.5111L15.2179 19.4036L13.9721 19.2159C13.3422 19.1285 12.7585 18.8446 12.3086 18.4067C11.8588 17.9689 11.567 17.4009 11.4772 16.7879L11.2928 15.5744L9.12725 14.3589C9.0565 14.3192 8.99607 14.2643 8.95062 14.1983C8.90516 14.1323 8.87589 14.057 8.86508 13.9783C8.85435 13.8994 8.86243 13.8191 8.88867 13.7438C8.91491 13.6684 8.95862 13.6 9.01641 13.5437L10.9006 11.7058C11.0005 11.6089 11.1358 11.5544 11.2768 11.5544H14.8247L17.4634 8.98537C17.8229 8.6344 18.2578 8.36539 18.737 8.1977C19.2161 8.03002 19.7275 7.96783 20.2343 8.01562L22.3082 8.20542C22.4318 8.21673 22.5474 8.26964 22.6351 8.35503C22.7229 8.44043 22.7773 8.55295 22.7889 8.67318L22.9839 10.6915C23.0331 11.1847 22.9692 11.6824 22.7969 12.1487C22.6246 12.615 22.3481 13.0383 21.9875 13.3881L19.3455 15.9582V19.4109C19.3455 19.5482 19.2895 19.6798 19.1899 19.777L17.3057 21.6107C17.2566 21.6595 17.1981 21.6983 17.1335 21.725C17.069 21.7517 16.9996 21.7657 16.9295 21.7663ZM10.2612 13.7988L12.0538 14.8028C12.1234 14.8418 12.183 14.8957 12.2283 14.9604C12.2735 15.025 12.3031 15.0988 12.3149 15.1762L12.5365 16.6375C12.5937 17.0304 12.7805 17.3946 13.0689 17.6752C13.3572 17.9558 13.7314 18.1376 14.1351 18.1933L15.6367 18.409C15.7162 18.4205 15.7921 18.4493 15.8585 18.4933C15.9249 18.5373 15.9803 18.5953 16.0204 18.6631L17.052 20.4024L18.2883 19.1983V15.7435C18.2886 15.6061 18.3449 15.4744 18.445 15.3774L21.2404 12.6569C21.4898 12.4146 21.6811 12.1215 21.8003 11.7987C21.9195 11.4759 21.9638 11.1314 21.9299 10.79L21.7754 9.19902L20.132 9.05174C19.7812 9.01892 19.4273 9.06207 19.0956 9.17808C18.7639 9.2941 18.4628 9.48012 18.2137 9.72279L15.4215 12.4433C15.3218 12.5406 15.1865 12.5954 15.0453 12.5957H11.4985L10.2612 13.7988Z" fill="white"/>
<path d="M7.53267 24.0001C7.42725 24 7.3242 23.9687 7.23658 23.9101C7.14895 23.8515 7.08068 23.7682 7.04041 23.6708C7.00013 23.5734 6.98967 23.4662 7.01034 23.3628C7.03101 23.2594 7.08189 23.1645 7.15653 23.0901L10.9212 19.3255C10.9703 19.2746 11.0291 19.234 11.0941 19.2061C11.1591 19.1782 11.229 19.1635 11.2998 19.1629C11.3705 19.1622 11.4407 19.1757 11.5062 19.2025C11.5716 19.2293 11.6311 19.2689 11.6812 19.3189C11.7312 19.3689 11.7707 19.4284 11.7975 19.4939C11.8243 19.5593 11.8378 19.6295 11.8372 19.7002C11.8366 19.771 11.8219 19.8409 11.794 19.9059C11.766 19.9709 11.7254 20.0297 11.6746 20.0788L7.90989 23.8434C7.8604 23.8931 7.80162 23.9324 7.73689 23.9593C7.67216 23.9862 7.60276 24 7.53267 24.0001Z" fill="white"/>
<path d="M7.53843 19.5349C7.432 19.5348 7.32796 19.5033 7.23945 19.4442C7.15094 19.3851 7.08193 19.3011 7.04113 19.2028C7.00034 19.1045 6.98958 18.9964 7.01023 18.892C7.03088 18.7876 7.082 18.6917 7.15714 18.6163L9.42871 16.3441C9.52969 16.243 9.66671 16.1861 9.80962 16.186C9.95252 16.1859 10.0896 16.2426 10.1907 16.3436C10.2919 16.4445 10.3487 16.5815 10.3488 16.7244C10.3489 16.8673 10.2923 17.0043 10.1913 17.1054L7.91864 19.3776C7.81771 19.4783 7.68098 19.5348 7.53843 19.5349Z" fill="white"/>
<path d="M11.6307 24C11.5243 23.9999 11.4203 23.9684 11.3318 23.9092C11.2434 23.8501 11.1745 23.7661 11.1338 23.6678C11.0932 23.5696 11.0826 23.4614 11.1035 23.3572C11.1243 23.2529 11.1757 23.1571 11.251 23.082L13.5172 20.8152C13.5669 20.7639 13.6262 20.7229 13.6918 20.6948C13.7574 20.6666 13.828 20.6518 13.8994 20.6511C13.9708 20.6505 14.0416 20.6641 14.1077 20.6911C14.1738 20.7182 14.2338 20.7581 14.2843 20.8085C14.3348 20.859 14.3748 20.919 14.4018 20.985C14.4288 21.0511 14.4425 21.1219 14.4418 21.1932C14.4412 21.2646 14.4264 21.3351 14.3982 21.4007C14.37 21.4662 14.329 21.5255 14.2777 21.5751L12.0114 23.842C11.9615 23.892 11.9022 23.9318 11.8368 23.9589C11.7715 23.986 11.7014 23.9999 11.6307 24Z" fill="white"/>
<path d="M19.279 13.2094C18.9846 13.2094 18.6969 13.1221 18.4521 12.9586C18.2074 12.795 18.0166 12.5626 17.9039 12.2906C17.7913 12.0186 17.7618 11.7194 17.8192 11.4307C17.8767 11.142 18.0184 10.8768 18.2266 10.6686C18.4347 10.4604 18.6999 10.3187 18.9887 10.2613C19.2774 10.2038 19.5766 10.2333 19.8486 10.346C20.1206 10.4586 20.353 10.6494 20.5166 10.8941C20.6801 11.1389 20.7674 11.4267 20.7674 11.721C20.7674 12.1158 20.6106 12.4944 20.3315 12.7735C20.0523 13.0526 19.6738 13.2094 19.279 13.2094ZM19.279 11.2958C19.1949 11.2958 19.1127 11.3207 19.0428 11.3675C18.9728 11.4142 18.9183 11.4806 18.8861 11.5583C18.854 11.636 18.8455 11.7215 18.8619 11.804C18.8784 11.8865 18.9189 11.9623 18.9783 12.0217C19.0378 12.0812 19.1136 12.1217 19.1961 12.1381C19.2785 12.1545 19.3641 12.1461 19.4418 12.1139C19.5195 12.0817 19.5859 12.0272 19.6326 11.9573C19.6793 11.8874 19.7043 11.8051 19.7043 11.721C19.7043 11.6083 19.6595 11.5001 19.5797 11.4203C19.5 11.3406 19.3918 11.2958 19.279 11.2958Z" fill="white"/>
<defs>
<linearGradient id="paint0_linear_1437_5223" x1="15.0303" y1="-13.1515" x2="15.5" y2="31" gradientUnits="userSpaceOnUse">
<stop stop-color="#F9B19B"/>
<stop offset="1" stop-color="#E23C27"/>
</linearGradient>
</defs>
</svg>
