<svg width="28" height="35" viewBox="0 0 28 35" fill="none" xmlns="http://www.w3.org/2000/svg">
<path fill-rule="evenodd" clip-rule="evenodd" d="M27.5012 0H0V29.4569C0 31.1442 1.36834 32.5125 3.05569 32.5125H11.4558C12.2973 32.9452 13.0533 33.527 13.6907 34.2243H13.8099C14.4473 33.527 15.2033 32.9452 16.0448 32.5125H24.4455C26.1329 32.5125 27.5012 31.1442 27.5012 29.4569V0Z" fill="#163832"/>
<path d="M6.72241 7.3335V26.5843H11.0193V21.8786L12.7385 19.7396L16.6057 26.5843H21.3323L15.7465 15.4616L20.473 7.3335H15.7465L11.8792 13.7504H13.5977L8.87117 20.5952L10.5897 15.8894H9.73043L11.0193 7.3335H6.72241Z" fill="#FCFCFC"/>
</svg>
