<svg width="17" height="23" viewBox="0 0 17 23" fill="none" xmlns="http://www.w3.org/2000/svg">
<path d="M8.85417 10.3885H12.75C12.8439 10.3885 12.934 10.3512 13.0004 10.2848C13.0669 10.2184 13.1042 10.1283 13.1042 10.0343C13.1042 9.94041 13.0669 9.85033 13.0004 9.78391C12.934 9.71749 12.8439 9.68018 12.75 9.68018H8.85417C8.76024 9.68018 8.67015 9.71749 8.60373 9.78391C8.53731 9.85033 8.5 9.94041 8.5 10.0343C8.5 10.1283 8.53731 10.2184 8.60373 10.2848C8.67015 10.3512 8.76024 10.3885 8.85417 10.3885Z" fill="#3C514E"/>
<path d="M8.85417 12.5135H11.6875C11.7814 12.5135 11.8715 12.4762 11.9379 12.4098C12.0044 12.3434 12.0417 12.2533 12.0417 12.1593C12.0417 12.0654 12.0044 11.9753 11.9379 11.9089C11.8715 11.8425 11.7814 11.8052 11.6875 11.8052H8.85417C8.76024 11.8052 8.67015 11.8425 8.60373 11.9089C8.53731 11.9753 8.5 12.0654 8.5 12.1593C8.5 12.2533 8.53731 12.3434 8.60373 12.4098C8.67015 12.4762 8.76024 12.5135 8.85417 12.5135Z" fill="#3C514E"/>
<path d="M5.31278 12.4781C5.37918 12.544 5.46894 12.5809 5.56246 12.5808H5.5784C5.6291 12.5801 5.67905 12.5685 5.72487 12.5468C5.7707 12.5251 5.81133 12.4938 5.84403 12.4551L7.70872 10.2114C7.74107 10.1762 7.76596 10.1348 7.78188 10.0897C7.79779 10.0446 7.8044 9.9967 7.80131 9.94897C7.79822 9.90124 7.7855 9.85463 7.7639 9.81195C7.74231 9.76926 7.71229 9.7314 7.67566 9.70064C7.63903 9.66988 7.59655 9.64685 7.55078 9.63295C7.50501 9.61906 7.4569 9.61457 7.40936 9.61978C7.36181 9.62498 7.3158 9.63976 7.27412 9.66323C7.23244 9.6867 7.19595 9.71837 7.16684 9.75632L5.53944 11.7042L4.49996 10.6665C4.43248 10.6056 4.34416 10.573 4.25328 10.5754C4.16239 10.5778 4.07591 10.615 4.01174 10.6794C3.94756 10.7438 3.91062 10.8304 3.90854 10.9213C3.90646 11.0122 3.93942 11.1004 4.00059 11.1677L5.31278 12.4781Z" fill="#3C514E"/>
<path d="M12.75 15.347H8.85417C8.76024 15.347 8.67015 15.3097 8.60373 15.2433C8.53731 15.1769 8.5 15.0868 8.5 14.9928C8.5 14.8989 8.53731 14.8088 8.60373 14.7424C8.67015 14.676 8.76024 14.6387 8.85417 14.6387H12.75C12.8439 14.6387 12.934 14.676 13.0004 14.7424C13.0669 14.8088 13.1042 14.8989 13.1042 14.9928C13.1042 15.0868 13.0669 15.1769 13.0004 15.2433C12.934 15.3097 12.8439 15.347 12.75 15.347Z" fill="#3C514E"/>
<path d="M11.6875 17.472H8.85417C8.76024 17.472 8.67015 17.4347 8.60373 17.3683C8.53731 17.3019 8.5 17.2118 8.5 17.1178C8.5 17.0239 8.53731 16.9338 8.60373 16.8674C8.67015 16.801 8.76024 16.7637 8.85417 16.7637H11.6875C11.7814 16.7637 11.8715 16.801 11.9379 16.8674C12.0044 16.9338 12.0417 17.0239 12.0417 17.1178C12.0417 17.2118 12.0044 17.3019 11.9379 17.3683C11.8715 17.4347 11.7814 17.472 11.6875 17.472Z" fill="#3C514E"/>
<path d="M5.56224 17.5396C5.46871 17.5397 5.37896 17.5028 5.31255 17.4369L4.00036 16.1247C3.96475 16.0926 3.93605 16.0535 3.91599 16.0099C3.89593 15.9663 3.88493 15.9191 3.88367 15.8712C3.8824 15.8232 3.8909 15.7755 3.90863 15.7309C3.92636 15.6863 3.95297 15.6458 3.98684 15.6119C4.0207 15.5779 4.06112 15.5511 4.10563 15.5332C4.15015 15.5153 4.19783 15.5067 4.2458 15.5078C4.29376 15.5089 4.341 15.5197 4.38466 15.5396C4.42831 15.5595 4.46746 15.5881 4.49974 15.6236L5.53922 16.6613L7.16662 14.7134C7.2272 14.6415 7.31385 14.5967 7.4075 14.5887C7.50115 14.5807 7.59414 14.6103 7.66599 14.6709C7.73785 14.7314 7.7827 14.8181 7.79067 14.9117C7.79864 15.0054 7.76908 15.0984 7.70849 15.1702L5.8438 17.4139C5.81209 17.4515 5.77288 17.4822 5.72867 17.5038C5.68446 17.5255 5.63622 17.5376 5.58703 17.5396H5.56224Z" fill="#3C514E"/>
<path d="M16.6689 1.71618C16.4584 1.52276 16.1827 1.41589 15.8968 1.41691H10.2301C10.1648 1.09542 10.0129 0.797852 9.79095 0.556282C9.62429 0.378571 9.42256 0.237391 9.19852 0.141677C8.97447 0.0459642 8.733 -0.00219764 8.48938 0.000240075C8.07785 -0.00656861 7.67704 0.131637 7.35716 0.390647C7.03728 0.649657 6.81874 1.01296 6.7398 1.41691H1.0625C0.780708 1.41691 0.510457 1.52885 0.311199 1.72811C0.111942 1.92737 0 2.19762 0 2.47941V21.6044C0 21.8862 0.111942 22.1565 0.311199 22.3557C0.510457 22.555 0.780708 22.6669 1.0625 22.6669H15.9375C16.0774 22.6684 16.2162 22.6418 16.3458 22.5889C16.4753 22.5361 16.593 22.4578 16.692 22.3589C16.7909 22.26 16.8691 22.1423 16.922 22.0127C16.9749 21.8832 17.0014 21.7444 17 21.6044V2.47941C17.0006 2.33621 16.9714 2.19446 16.9144 2.06309C16.8574 1.93172 16.7738 1.8136 16.6689 1.71618ZM7.05855 2.12524C7.15248 2.12524 7.24256 2.08793 7.30898 2.02151C7.3754 1.95509 7.41272 1.86501 7.41272 1.77108C7.41051 1.62973 7.43695 1.48941 7.49046 1.35857C7.54396 1.22772 7.62342 1.10908 7.72404 1.00978C7.82465 0.910492 7.94434 0.832612 8.07588 0.780844C8.20742 0.729075 8.34808 0.704491 8.48938 0.708574C8.63685 0.704394 8.78352 0.731596 8.91968 0.78838C9.05584 0.845164 9.17838 0.930232 9.27918 1.03795C9.461 1.2389 9.56194 1.50008 9.56251 1.77108C9.56251 1.86501 9.59982 1.95509 9.66624 2.02151C9.73266 2.08793 9.82275 2.12524 9.91668 2.12524H12.0417V4.25025H4.95834V2.12524H7.05855ZM16.2917 21.6044C16.2917 21.6984 16.2544 21.7884 16.188 21.8549C16.1215 21.9213 16.0315 21.9586 15.9375 21.9586H1.0625C0.96857 21.9586 0.878487 21.9213 0.812067 21.8549C0.745648 21.7884 0.708334 21.6984 0.708334 21.6044V2.47941C0.708334 2.38548 0.745648 2.2954 0.812067 2.22898C0.878487 2.16256 0.96857 2.12524 1.0625 2.12524H4.25V4.60441C4.25 4.69834 4.28732 4.78843 4.35374 4.85485C4.42016 4.92127 4.51024 4.95858 4.60417 4.95858H12.3958C12.4898 4.95858 12.5799 4.92127 12.6463 4.85485C12.7127 4.78843 12.75 4.69834 12.75 4.60441V2.12524H15.8968C16.0032 2.12352 16.1063 2.16211 16.1854 2.23326C16.2195 2.26448 16.2466 2.30255 16.2649 2.34497C16.2832 2.38739 16.2923 2.43321 16.2917 2.47941V21.6044Z" fill="#3C514E"/>
</svg>
