<svg width="282" height="86" viewBox="0 0 282 86" fill="none" xmlns="http://www.w3.org/2000/svg">
<g clip-path="url(#clip0_1324_5179)">
<path d="M89.2645 44.2009C93.1277 44.2009 95.728 41.2839 95.728 36.8898C95.728 32.4588 93.1277 29.5418 89.2645 29.5418C85.4013 29.5418 82.801 32.4588 82.801 36.8898C82.801 41.2839 85.4013 44.2009 89.2645 44.2009ZM89.2645 42.244C86.3299 42.244 84.9927 39.733 84.9927 36.8898C84.9927 34.0466 86.3299 31.4988 89.2645 31.4988C92.1991 31.4988 93.5363 34.0466 93.5363 36.8898C93.5363 39.733 92.1991 42.244 89.2645 42.244ZM97.2092 31.7573H101.927V43.9056H104.118V31.7573H108.799V29.7264H97.2092V31.7573ZM111.996 43.9056H114.187V37.9238H116.156L120.837 43.9056H123.66L117.828 36.5575L123.585 29.7264H120.762L115.636 35.8929H114.187V29.7264H111.996V43.9056ZM126.042 49.2227H128.233V41.727H128.419C128.902 42.5025 129.831 44.2009 132.579 44.2009C136.146 44.2009 138.634 41.3577 138.634 36.8529C138.634 32.385 136.146 29.5418 132.542 29.5418C129.756 29.5418 128.902 31.2403 128.419 31.9788H128.159V29.7264H126.042V49.2227ZM128.196 36.816C128.196 33.6404 129.608 31.4988 132.282 31.4988C135.068 31.4988 136.443 33.8251 136.443 36.816C136.443 39.8438 135.031 42.244 132.282 42.244C129.645 42.244 128.196 40.0284 128.196 36.816ZM144.169 34.859V29.7264H141.978V43.9056H147.958C151.301 43.9056 153.121 41.8747 153.121 39.3268C153.121 36.7421 151.301 34.859 147.958 34.859H144.169ZM155.387 43.9056H157.579V29.7264H155.387V43.9056ZM144.169 36.8898H147.958C149.695 36.8898 150.93 37.9421 150.93 39.4377C150.93 40.8685 149.695 41.8747 147.958 41.8747H144.169V36.8898ZM160.774 31.7573H165.491V43.9056H167.683V31.7573H172.363V29.7264H160.774V31.7573ZM177.752 34.859V29.7264H175.56V43.9056H181.541C184.884 43.9056 186.704 41.8747 186.704 39.3268C186.704 36.7421 184.884 34.859 181.541 34.859H177.752ZM188.97 43.9056H191.162V29.7264H188.97V43.9056ZM177.752 36.8898H181.541C183.277 36.8898 184.513 37.9421 184.513 39.4377C184.513 40.8685 183.277 41.8747 181.541 41.8747H177.752V36.8898ZM197.365 40.693V29.7264H195.174V43.9056H197.737L204.572 32.9389V43.9056H206.763V29.7264H204.237L197.365 40.693ZM202.789 25C202.789 25.96 202.268 26.8093 200.968 26.8093C199.668 26.8093 199.185 25.96 199.185 25H197.142C197.142 26.9939 198.628 28.3971 200.968 28.3971C203.346 28.3971 204.832 26.9939 204.832 25H202.789ZM83.8318 78.0242H89.766V70.4776H91.9808L97.2603 78.0242H104.309L96.6613 67.3067L104.225 56.7554H97.2603L91.4376 65.0081H89.766V56.7554H83.8318V78.0242ZM115.603 78.4396C122.094 78.4396 126.134 74.0224 126.134 67.4729C126.134 60.8819 122.094 56.4784 115.603 56.4784C109.111 56.4784 105.071 60.8819 105.071 67.4729C105.071 74.0224 109.111 78.4396 115.603 78.4396ZM115.63 73.8702C112.635 73.8702 111.103 71.1423 111.103 67.4313C111.103 63.7204 112.635 60.9787 115.63 60.9787C118.57 60.9787 120.102 63.7204 120.102 67.4313C120.102 71.1423 118.57 73.8702 115.63 73.8702ZM135.662 56.7554H129.992V78.0242H135.662V69.6746H142.975V78.0242H148.602V56.7554H142.975V65.0359H135.662V56.7554ZM151.096 61.3941H157.935V78.0242H163.591V61.3941H170.486V56.7554H151.096V61.3941ZM174.084 86H180.018V74.6179H180.199C181.021 76.3902 182.818 78.3704 186.272 78.3704C191.148 78.3704 194.951 74.5348 194.951 67.4175C194.951 60.1064 190.981 56.4784 186.286 56.4784C182.706 56.4784 180.993 58.597 180.199 60.328H179.934V56.7554H174.084V86ZM179.892 67.3897C179.892 63.5957 181.508 61.1725 184.392 61.1725C187.331 61.1725 188.891 63.7066 188.891 67.3897C188.891 71.1007 187.303 73.6763 184.392 73.6763C181.536 73.6763 179.892 71.1839 179.892 67.3897ZM208.574 78.4396C215.065 78.4396 219.105 74.0224 219.105 67.4729C219.105 60.8819 215.065 56.4784 208.574 56.4784C202.083 56.4784 198.043 60.8819 198.043 67.4729C198.043 74.0224 202.083 78.4396 208.574 78.4396ZM208.602 73.8702C205.607 73.8702 204.075 71.1423 204.075 67.4313C204.075 63.7204 205.607 60.9787 208.602 60.9787C211.541 60.9787 213.073 63.7204 213.073 67.4313C213.073 71.1423 211.541 73.8702 208.602 73.8702ZM221.71 78.0242H223.493C228.034 78.0242 230.444 75.0333 230.806 67.8884L231.141 61.3941H236.42V78.0242H242.075V56.7554H225.805L225.457 66.1712C225.248 71.5577 224.412 73.3439 222.393 73.3439H221.682L221.71 78.0242ZM252.345 63.2911V56.7554H246.676V78.0242H256.789C262.459 78.0242 265.788 75.0749 265.801 70.6854C265.788 66.2128 262.459 63.2911 256.789 63.2911H252.345ZM252.345 67.9298H256.789C258.781 67.9298 260.188 69.0929 260.216 70.7269C260.188 72.2778 258.781 73.3855 256.789 73.3855H252.345V67.9298Z" fill="#112B27"/>
<path d="M278.301 77C280.235 77 281.801 75.4331 281.801 73.5C281.801 71.567 280.235 70 278.301 70C276.367 70 274.801 71.567 274.801 73.5C274.801 75.4331 276.367 77 278.301 77Z" fill="#F64027"/>
<path fill-rule="evenodd" clip-rule="evenodd" d="M69.1059 0H0V74.0201C0 78.2601 3.4384 81.6985 7.67843 81.6985H28.7864C30.9011 82.7858 32.8007 84.2477 34.4024 86H34.7019C36.3036 84.2477 38.2033 82.7858 40.3179 81.6985H61.4274C65.6675 81.6985 69.1059 78.2601 69.1059 74.0201V0Z" fill="#E84832"/>
<path d="M16.8926 18.4282V66.8023H27.69V54.9775L32.0099 49.6026L41.7277 66.8023H53.6047L39.5685 38.8528L51.4455 18.4282H39.5685L29.8507 34.5529H34.169L22.292 51.7526L26.6104 39.9278H24.4512L27.69 18.4282H16.8926Z" fill="#FCFCFC"/>
</g>
<defs>
<clipPath id="clip0_1324_5179">
<rect width="282" height="86" fill="white"/>
</clipPath>
</defs>
</svg>
