<svg width="70" height="86" viewBox="0 0 70 86" fill="none" xmlns="http://www.w3.org/2000/svg">
<path fill-rule="evenodd" clip-rule="evenodd" d="M69.1059 0H0V74.0201C0 78.2601 3.4384 81.6985 7.67843 81.6985H28.7864C30.9011 82.7858 32.8007 84.2477 34.4024 86H34.7019C36.3036 84.2477 38.2033 82.7858 40.3179 81.6985H61.4274C65.6675 81.6985 69.1059 78.2601 69.1059 74.0201V0Z" fill="#E84832"/>
<path d="M16.8926 18.4282V66.8023H27.69V54.9775L32.0099 49.6026L41.7277 66.8023H53.6047L39.5685 38.8528L51.4455 18.4282H39.5685L29.8507 34.5529H34.169L22.292 51.7526L26.6104 39.9278H24.4512L27.69 18.4282H16.8926Z" fill="#FCFCFC"/>
</svg>
