<svg width="282" height="86" viewBox="0 0 282 86" fill="none" xmlns="http://www.w3.org/2000/svg">
<path d="M89.2643 44.2009C93.1275 44.2009 95.7277 41.2839 95.7277 36.8898C95.7277 32.4588 93.1275 29.5418 89.2643 29.5418C85.401 29.5418 82.8008 32.4588 82.8008 36.8898C82.8008 41.2839 85.401 44.2009 89.2643 44.2009ZM89.2643 42.244C86.3297 42.244 84.9924 39.733 84.9924 36.8898C84.9924 34.0466 86.3297 31.4988 89.2643 31.4988C92.1988 31.4988 93.5361 34.0466 93.5361 36.8898C93.5361 39.733 92.1988 42.244 89.2643 42.244ZM97.2089 31.7573H101.927V43.9056H104.118V31.7573H108.799V29.7264H97.2089V31.7573ZM111.996 43.9056H114.187V37.9238H116.156L120.836 43.9056H123.66L117.828 36.5575L123.585 29.7264H120.762L115.636 35.8929H114.187V29.7264H111.996V43.9056ZM126.041 49.2227H128.233V41.727H128.419C128.902 42.5025 129.83 44.2009 132.579 44.2009C136.145 44.2009 138.634 41.3577 138.634 36.8529C138.634 32.385 136.145 29.5418 132.542 29.5418C129.756 29.5418 128.902 31.2403 128.419 31.9788H128.159V29.7264H126.041V49.2227ZM128.196 36.816C128.196 33.6404 129.608 31.4988 132.282 31.4988C135.068 31.4988 136.443 33.8251 136.443 36.816C136.443 39.8438 135.031 42.244 132.282 42.244C129.645 42.244 128.196 40.0284 128.196 36.816ZM144.169 34.859V29.7264H141.977V43.9056H147.958C151.301 43.9056 153.121 41.8747 153.121 39.3268C153.121 36.7421 151.301 34.859 147.958 34.859H144.169ZM155.387 43.9056H157.579V29.7264H155.387V43.9056ZM144.169 36.8898H147.958C149.694 36.8898 150.93 37.9421 150.93 39.4377C150.93 40.8685 149.694 41.8747 147.958 41.8747H144.169V36.8898ZM160.773 31.7573H165.491V43.9056H167.683V31.7573H172.363V29.7264H160.773V31.7573ZM177.752 34.859V29.7264H175.56V43.9056H181.541C184.884 43.9056 186.704 41.8747 186.704 39.3268C186.704 36.7421 184.884 34.859 181.541 34.859H177.752ZM188.97 43.9056H191.162V29.7264H188.97V43.9056ZM177.752 36.8898H181.541C183.277 36.8898 184.512 37.9421 184.512 39.4377C184.512 40.8685 183.277 41.8747 181.541 41.8747H177.752V36.8898ZM197.365 40.693V29.7264H195.173V43.9056H197.736L204.571 32.9389V43.9056H206.763V29.7264H204.237L197.365 40.693ZM202.788 25C202.788 25.96 202.268 26.8093 200.968 26.8093C199.668 26.8093 199.185 25.96 199.185 25H197.142C197.142 26.9939 198.628 28.3971 200.968 28.3971C203.345 28.3971 204.831 26.9939 204.831 25H202.788ZM83.8316 78.0242H89.7657V70.4776H91.9806L97.26 78.0242H104.309L96.661 67.3067L104.225 56.7554H97.26L91.4373 65.0081H89.7657V56.7554H83.8316V78.0242ZM115.602 78.4396C122.094 78.4396 126.133 74.0224 126.133 67.4729C126.133 60.8819 122.094 56.4784 115.602 56.4784C109.111 56.4784 105.071 60.8819 105.071 67.4729C105.071 74.0224 109.111 78.4396 115.602 78.4396ZM115.63 73.8702C112.635 73.8702 111.103 71.1423 111.103 67.4313C111.103 63.7204 112.635 60.9787 115.63 60.9787C118.569 60.9787 120.102 63.7204 120.102 67.4313C120.102 71.1423 118.569 73.8702 115.63 73.8702ZM135.661 56.7554H129.992V78.0242H135.661V69.6746H142.974V78.0242H148.602V56.7554H142.974V65.0359H135.661V56.7554ZM151.096 61.3941H157.935V78.0242H163.591V61.3941H170.486V56.7554H151.096V61.3941ZM174.083 86H180.018V74.6179H180.199C181.02 76.3902 182.818 78.3704 186.272 78.3704C191.148 78.3704 194.951 74.5348 194.951 67.4175C194.951 60.1064 190.98 56.4784 186.286 56.4784C182.706 56.4784 180.993 58.597 180.199 60.328H179.934V56.7554H174.083V86ZM179.892 67.3897C179.892 63.5957 181.508 61.1725 184.392 61.1725C187.331 61.1725 188.891 63.7066 188.891 67.3897C188.891 71.1007 187.303 73.6763 184.392 73.6763C181.536 73.6763 179.892 71.1839 179.892 67.3897ZM208.574 78.4396C215.065 78.4396 219.105 74.0224 219.105 67.4729C219.105 60.8819 215.065 56.4784 208.574 56.4784C202.083 56.4784 198.043 60.8819 198.043 67.4729C198.043 74.0224 202.083 78.4396 208.574 78.4396ZM208.602 73.8702C205.607 73.8702 204.074 71.1423 204.074 67.4313C204.074 63.7204 205.607 60.9787 208.602 60.9787C211.541 60.9787 213.073 63.7204 213.073 67.4313C213.073 71.1423 211.541 73.8702 208.602 73.8702ZM221.71 78.0242H223.493C228.034 78.0242 230.444 75.0333 230.806 67.8884L231.14 61.3941H236.42V78.0242H242.075V56.7554H225.805L225.457 66.1712C225.248 71.5577 224.412 73.3439 222.392 73.3439H221.682L221.71 78.0242ZM252.344 63.2911V56.7554H246.676V78.0242H256.788C262.458 78.0242 265.788 75.0749 265.801 70.6854C265.788 66.2128 262.458 63.2911 256.788 63.2911H252.344ZM252.344 67.9298H256.788C258.781 67.9298 260.188 69.0929 260.216 70.7269C260.188 72.2778 258.781 73.3855 256.788 73.3855H252.344V67.9298Z" fill="#112B27"/>
<path d="M278.301 77C280.235 77 281.801 75.4331 281.801 73.5C281.801 71.567 280.235 70 278.301 70C276.367 70 274.801 71.567 274.801 73.5C274.801 75.4331 276.367 77 278.301 77Z" fill="#163832"/>
<path fill-rule="evenodd" clip-rule="evenodd" d="M69.1059 0H0V74.0201C0 78.2601 3.4384 81.6985 7.67843 81.6985H28.7864C30.9011 82.7858 32.8007 84.2477 34.4024 86H34.7019C36.3036 84.2477 38.2033 82.7858 40.3179 81.6985H61.4274C65.6675 81.6985 69.1059 78.2601 69.1059 74.0201V0Z" fill="#163832"/>
<path d="M16.8926 18.4282V66.8023H27.69V54.9775L32.0099 49.6026L41.7277 66.8023H53.6047L39.5685 38.8528L51.4455 18.4282H39.5685L29.8507 34.5529H34.169L22.292 51.7526L26.6104 39.9278H24.4512L27.69 18.4282H16.8926Z" fill="#FCFCFC"/>
</svg>
