<svg width="105" height="116" viewBox="0 0 105 116" fill="none" xmlns="http://www.w3.org/2000/svg">
<path d="M102 6.17432L3.00003 109.174" stroke="white" stroke-width="6" stroke-linecap="round"/>
<path d="M55.4885 92.375V105H72.7327C74.0876 105 75.1962 106.125 75.1962 107.5C75.1962 108.875 74.0876 110 72.7327 110H33.3173C31.9624 110 30.8538 108.875 30.8538 107.5C30.8538 106.125 31.9624 105 33.3173 105H50.5615V92.375C34.0563 91.125 21 77 21 60C21 58.625 22.1086 57.5 23.4635 57.5C24.8184 57.5 25.9269 58.625 25.9269 60C25.9269 75.125 38.1211 87.5 53.025 87.5C67.9289 87.5 80.1231 75.125 80.1231 60C80.1231 58.625 81.2316 57.5 82.5865 57.5C83.9414 57.5 85.05 58.625 85.05 60C85.05 77.125 71.9937 91.125 55.4885 92.375ZM71.501 28.75V60C71.501 70.375 63.2484 78.75 53.025 78.75C42.8016 78.75 34.549 70.375 34.549 60V28.75C34.549 18.375 42.8016 10 53.025 10C63.2484 10 71.501 18.375 71.501 28.75ZM66.574 28.75C66.574 21.125 60.5386 15 53.025 15C45.5114 15 39.476 21.125 39.476 28.75V60C39.476 67.625 45.5114 73.75 53.025 73.75C60.5386 73.75 66.574 67.625 66.574 60V28.75Z" fill="white"/>
</svg>
