<svg width="266" height="50" viewBox="0 0 266 50" fill="none" xmlns="http://www.w3.org/2000/svg">
<g clip-path="url(#clip0_1337_5184)">
<path d="M38.294 11.1051V7.70879H38.8778C39.0739 7.55254 39.2571 7.33237 39.4276 7.04828C39.598 6.76418 39.7429 6.37498 39.8622 5.88066C39.9815 5.38634 40.0639 4.74714 40.1094 3.96305L40.3395 0.272705H45.9176V7.70879H46.8892V11.0966H45.3722V8.99998H39.8111V11.1051H38.294ZM40.7188 7.70879H44.4006V1.59799H41.7628L41.6264 3.96305C41.5895 4.5568 41.5298 5.08805 41.4474 5.5568C41.3651 6.02555 41.2614 6.4389 41.1364 6.79686C41.0114 7.15197 40.8722 7.45595 40.7188 7.70879ZM50.9641 9.12782C50.3249 9.12782 49.771 8.9872 49.3022 8.70595C48.8335 8.4247 48.4698 8.03123 48.2113 7.52555C47.9556 7.01987 47.8278 6.42896 47.8278 5.75282C47.8278 5.07668 47.9556 4.48435 48.2113 3.97583C48.4698 3.46731 48.8335 3.07242 49.3022 2.79117C49.771 2.50992 50.3249 2.3693 50.9641 2.3693C51.6033 2.3693 52.1573 2.50992 52.6261 2.79117C53.0948 3.07242 53.457 3.46731 53.7127 3.97583C53.9712 4.48435 54.1005 5.07668 54.1005 5.75282C54.1005 6.42896 53.9712 7.01987 53.7127 7.52555C53.457 8.03123 53.0948 8.4247 52.6261 8.70595C52.1573 8.9872 51.6033 9.12782 50.9641 9.12782ZM50.9727 7.89203C51.3192 7.89203 51.609 7.79685 51.842 7.60651C52.0749 7.41333 52.2482 7.15481 52.3619 6.83095C52.4783 6.50708 52.5366 6.14629 52.5366 5.74856C52.5366 5.34799 52.4783 4.98578 52.3619 4.66191C52.2482 4.33521 52.0749 4.07526 51.842 3.88208C51.609 3.6889 51.3192 3.59231 50.9727 3.59231C50.6175 3.59231 50.3221 3.6889 50.0863 3.88208C49.8533 4.07526 49.6786 4.33521 49.5621 4.66191C49.4485 4.98578 49.3917 5.34799 49.3917 5.74856C49.3917 6.14629 49.4485 6.50708 49.5621 6.83095C49.6786 7.15481 49.8533 7.41333 50.0863 7.60651C50.3221 7.79685 50.6175 7.89203 50.9727 7.89203ZM58.2649 9.12782C57.6115 9.12782 57.0504 8.98436 56.5817 8.69742C56.1158 8.41049 55.7564 8.01418 55.5036 7.5085C55.2536 6.99998 55.1286 6.41475 55.1286 5.75282C55.1286 5.08805 55.2564 4.5014 55.5121 3.99288C55.7678 3.48151 56.1286 3.08379 56.5945 2.7997C57.0632 2.51276 57.6172 2.3693 58.2564 2.3693C58.7876 2.3693 59.2578 2.46731 59.6669 2.66333C60.0788 2.85651 60.407 3.13066 60.6513 3.48578C60.8956 3.83805 61.0348 4.24998 61.0689 4.72157H59.5945C59.5348 4.40623 59.3928 4.14345 59.1683 3.93322C58.9467 3.72015 58.6499 3.61362 58.2777 3.61362C57.9624 3.61362 57.6854 3.69884 57.4467 3.8693C57.2081 4.03691 57.022 4.27839 56.8885 4.59373C56.7578 4.90907 56.6925 5.28691 56.6925 5.72725C56.6925 6.17328 56.7578 6.5568 56.8885 6.87782C57.0192 7.196 57.2024 7.44174 57.4382 7.61504C57.6768 7.78549 57.9567 7.87072 58.2777 7.87072C58.505 7.87072 58.7081 7.8281 58.8871 7.74288C59.0689 7.65481 59.2209 7.52839 59.343 7.36362C59.4652 7.19884 59.549 6.99856 59.5945 6.76276H61.0689C61.032 7.22583 60.8956 7.63634 60.6598 7.9943C60.424 8.34941 60.103 8.62782 59.6967 8.82953C59.2905 9.02839 58.8132 9.12782 58.2649 9.12782ZM61.8604 3.72015V2.45453H67.5877V3.72015H65.4698V8.99998H63.9783V3.72015H61.8604ZM69.7749 11.4545C69.5646 11.4545 69.37 11.4375 69.1911 11.4034C69.0149 11.3722 68.8743 11.3352 68.7692 11.2926L69.1271 10.0909C69.3516 10.1563 69.5518 10.1875 69.728 10.1847C69.9041 10.1818 70.0589 10.1264 70.1925 10.0185C70.3288 9.91333 70.4439 9.7372 70.5376 9.49004L70.6697 9.13634L68.2962 2.45453H69.9325L71.4411 7.39771H71.5092L73.022 2.45453H74.6626L72.0419 9.79259C71.9197 10.1392 71.7578 10.4361 71.5561 10.6832C71.3544 10.9332 71.1072 11.1236 70.8146 11.2543C70.5249 11.3878 70.1783 11.4545 69.7749 11.4545ZM75.7301 8.99998V2.45453H81.2571V8.99998H79.7699V3.72015H77.2045V8.99998H75.7301ZM85.82 8.99998V2.45453H87.3626V5.09657H87.9251L89.8938 2.45453H91.7518L89.3271 5.66759L91.7773 8.99998H89.9109L88.1168 6.53265H87.3626V8.99998H85.82ZM97.1158 6.91191L99.7365 2.45453H101.322V8.99998H99.8303V4.53833L97.218 8.99998H95.6286V2.45453H97.1158V6.91191ZM107.402 5.08805V6.35367H103.916V5.08805H107.402ZM104.393 2.45453V8.99998H102.906V2.45453H104.393ZM108.412 2.45453V8.99998H106.929V2.45453H108.412ZM112.942 11.2244V0.272705H114.489V11.2244H112.942ZM112.942 9.12782C112.462 9.12782 112.023 9.04686 111.626 8.88492C111.228 8.72299 110.884 8.49288 110.594 8.19458C110.308 7.89629 110.085 7.54117 109.925 7.12924C109.769 6.71447 109.691 6.25566 109.691 5.75282C109.691 5.24998 109.769 4.79117 109.925 4.3764C110.085 3.96163 110.308 3.60509 110.594 3.3068C110.884 3.00566 111.228 2.77413 111.626 2.6122C112.023 2.45026 112.462 2.3693 112.942 2.3693H113.271V9.12782H112.942ZM112.942 7.8835H113.134V3.61362H112.942C112.67 3.61362 112.428 3.67043 112.218 3.78407C112.011 3.89487 111.836 4.0497 111.694 4.24856C111.555 4.44458 111.448 4.67185 111.374 4.93038C111.303 5.18606 111.268 5.46021 111.268 5.75282C111.268 6.14203 111.332 6.49856 111.46 6.82242C111.587 7.14345 111.775 7.40055 112.022 7.59373C112.272 7.78691 112.579 7.8835 112.942 7.8835ZM114.489 9.12782H114.161V2.3693H114.489C114.969 2.3693 115.408 2.45026 115.806 2.6122C116.204 2.77413 116.546 3.00566 116.833 3.3068C117.123 3.60509 117.346 3.96163 117.502 4.3764C117.661 4.79117 117.741 5.24998 117.741 5.75282C117.741 6.25566 117.661 6.71447 117.502 7.12924C117.346 7.54117 117.123 7.89629 116.833 8.19458C116.546 8.49288 116.204 8.72299 115.806 8.88492C115.408 9.04686 114.969 9.12782 114.489 9.12782ZM114.489 7.8835C114.765 7.8835 115.006 7.8281 115.214 7.71731C115.421 7.60651 115.594 7.4531 115.734 7.25708C115.876 7.06106 115.982 6.83521 116.053 6.57953C116.124 6.321 116.16 6.04543 116.16 5.75282C116.16 5.36362 116.097 5.00708 115.972 4.68322C115.847 4.35935 115.66 4.10083 115.41 3.90765C115.163 3.71163 114.856 3.61362 114.489 3.61362H114.298V7.8835H114.489ZM121.898 9.12782C121.259 9.12782 120.705 8.9872 120.236 8.70595C119.767 8.4247 119.403 8.03123 119.145 7.52555C118.889 7.01987 118.761 6.42896 118.761 5.75282C118.761 5.07668 118.889 4.48435 119.145 3.97583C119.403 3.46731 119.767 3.07242 120.236 2.79117C120.705 2.50992 121.259 2.3693 121.898 2.3693C122.537 2.3693 123.091 2.50992 123.56 2.79117C124.028 3.07242 124.391 3.46731 124.646 3.97583C124.905 4.48435 125.034 5.07668 125.034 5.75282C125.034 6.42896 124.905 7.01987 124.646 7.52555C124.391 8.03123 124.028 8.4247 123.56 8.70595C123.091 8.9872 122.537 9.12782 121.898 9.12782ZM121.906 7.89203C122.253 7.89203 122.543 7.79685 122.776 7.60651C123.009 7.41333 123.182 7.15481 123.295 6.83095C123.412 6.50708 123.47 6.14629 123.47 5.74856C123.47 5.34799 123.412 4.98578 123.295 4.66191C123.182 4.33521 123.009 4.07526 122.776 3.88208C122.543 3.6889 122.253 3.59231 121.906 3.59231C121.551 3.59231 121.256 3.6889 121.02 3.88208C120.787 4.07526 120.612 4.33521 120.496 4.66191C120.382 4.98578 120.325 5.34799 120.325 5.74856C120.325 6.14629 120.382 6.50708 120.496 6.83095C120.612 7.15481 120.787 7.41333 121.02 7.60651C121.256 7.79685 121.551 7.89203 121.906 7.89203ZM126.343 11.4545V2.45453H127.86V3.53691H127.95C128.029 3.37782 128.142 3.20879 128.287 3.02981C128.431 2.84799 128.627 2.69316 128.875 2.56532C129.122 2.43464 129.437 2.3693 129.821 2.3693C130.326 2.3693 130.782 2.49856 131.189 2.75708C131.598 3.01276 131.922 3.39203 132.16 3.89487C132.402 4.39487 132.522 5.0085 132.522 5.73578C132.522 6.45453 132.404 7.06532 132.169 7.56816C131.933 8.071 131.612 8.45453 131.206 8.71873C130.799 8.98293 130.339 9.11504 129.825 9.11504C129.45 9.11504 129.139 9.05254 128.892 8.92754C128.645 8.80254 128.446 8.65197 128.295 8.47583C128.147 8.29685 128.032 8.12782 127.95 7.96873H127.886V11.4545H126.343ZM127.856 5.72725C127.856 6.15055 127.916 6.52129 128.035 6.83947C128.157 7.15765 128.332 7.40623 128.559 7.58521C128.789 7.76134 129.068 7.84941 129.395 7.84941C129.735 7.84941 130.021 7.7585 130.251 7.57668C130.481 7.39203 130.654 7.1406 130.771 6.82242C130.89 6.5014 130.95 6.13634 130.95 5.72725C130.95 5.321 130.892 4.96021 130.775 4.64487C130.659 4.32953 130.485 4.08237 130.255 3.90339C130.025 3.72441 129.738 3.63492 129.395 3.63492C129.065 3.63492 128.785 3.72157 128.555 3.89487C128.325 4.06816 128.15 4.31106 128.031 4.62356C127.914 4.93606 127.856 5.30396 127.856 5.72725ZM137.61 7.20595L139.554 2.45453H140.798L138.152 8.99998H137.074L134.487 2.45453H135.718L137.61 7.20595ZM135.331 2.45453V8.99998H133.843V2.45453H135.331ZM139.954 8.99998V2.45453H141.429V8.99998H139.954ZM144.868 9.13208C144.453 9.13208 144.079 9.05822 143.747 8.91049C143.417 8.75992 143.156 8.53833 142.963 8.24572C142.772 7.9531 142.677 7.59231 142.677 7.16333C142.677 6.79401 142.745 6.48862 142.882 6.24714C143.018 6.00566 143.204 5.81248 143.44 5.66759C143.676 5.52271 143.941 5.41333 144.237 5.33947C144.535 5.26276 144.843 5.20737 145.162 5.17328C145.545 5.1335 145.856 5.09799 146.095 5.06674C146.333 5.03265 146.507 4.98151 146.615 4.91333C146.725 4.84231 146.781 4.73293 146.781 4.58521V4.55964C146.781 4.23862 146.686 3.99004 146.495 3.8139C146.305 3.63776 146.031 3.5497 145.673 3.5497C145.295 3.5497 144.995 3.63208 144.774 3.79686C144.555 3.96163 144.407 4.15623 144.331 4.38066L142.89 4.17612C143.004 3.77839 143.191 3.446 143.453 3.17896C143.714 2.90907 144.034 2.70737 144.412 2.57384C144.789 2.43748 145.207 2.3693 145.664 2.3693C145.98 2.3693 146.294 2.40623 146.606 2.48009C146.919 2.55396 147.204 2.67612 147.463 2.84657C147.721 3.01418 147.929 3.24288 148.085 3.53265C148.244 3.82242 148.324 4.18464 148.324 4.6193V8.99998H146.841V8.10083H146.789C146.696 8.28265 146.564 8.4531 146.393 8.6122C146.225 8.76845 146.014 8.89487 145.758 8.99146C145.505 9.08521 145.208 9.13208 144.868 9.13208ZM145.268 7.99856C145.578 7.99856 145.846 7.93748 146.074 7.81532C146.301 7.69032 146.475 7.52555 146.598 7.321C146.723 7.11646 146.785 6.89345 146.785 6.65197V5.88066C146.737 5.92043 146.654 5.95737 146.538 5.99146C146.424 6.02555 146.297 6.05538 146.154 6.08095C146.012 6.10651 145.872 6.12924 145.733 6.14913C145.593 6.16901 145.473 6.18606 145.37 6.20026C145.14 6.23151 144.934 6.28265 144.752 6.35367C144.571 6.4247 144.427 6.52413 144.322 6.65197C144.217 6.77697 144.164 6.9389 144.164 7.13776C144.164 7.42186 144.268 7.63634 144.475 7.78123C144.683 7.92612 144.947 7.99856 145.268 7.99856ZM155.402 2.45453V7.84941H156.403V11.1051H154.895V8.99998H149.875V2.45453H151.362V7.73436H153.927V2.45453H155.402ZM159.155 6.91191L161.776 2.45453H163.361V8.99998H161.869V4.53833L159.257 8.99998H157.668V2.45453H159.155V6.91191ZM167.8 9.12782C167.161 9.12782 166.607 8.9872 166.138 8.70595C165.669 8.4247 165.306 8.03123 165.047 7.52555C164.792 7.01987 164.664 6.42896 164.664 5.75282C164.664 5.07668 164.792 4.48435 165.047 3.97583C165.306 3.46731 165.669 3.07242 166.138 2.79117C166.607 2.50992 167.161 2.3693 167.8 2.3693C168.439 2.3693 168.993 2.50992 169.462 2.79117C169.931 3.07242 170.293 3.46731 170.549 3.97583C170.807 4.48435 170.936 5.07668 170.936 5.75282C170.936 6.42896 170.807 7.01987 170.549 7.52555C170.293 8.03123 169.931 8.4247 169.462 8.70595C168.993 8.9872 168.439 9.12782 167.8 9.12782ZM167.809 7.89203C168.155 7.89203 168.445 7.79685 168.678 7.60651C168.911 7.41333 169.084 7.15481 169.198 6.83095C169.314 6.50708 169.373 6.14629 169.373 5.74856C169.373 5.34799 169.314 4.98578 169.198 4.66191C169.084 4.33521 168.911 4.07526 168.678 3.88208C168.445 3.6889 168.155 3.59231 167.809 3.59231C167.453 3.59231 167.158 3.6889 166.922 3.88208C166.689 4.07526 166.515 4.33521 166.398 4.66191C166.284 4.98578 166.228 5.34799 166.228 5.74856C166.228 6.14629 166.284 6.50708 166.398 6.83095C166.515 7.15481 166.689 7.41333 166.922 7.60651C167.158 7.79685 167.453 7.89203 167.809 7.89203ZM176.741 5.08805V6.35367H173.256V5.08805H176.741ZM173.733 2.45453V8.99998H172.246V2.45453H173.733ZM177.751 2.45453V8.99998H176.268V2.45453H177.751ZM183.808 5.08805V6.35367H180.322V5.08805H183.808ZM180.799 2.45453V8.99998H179.312V2.45453H180.799ZM184.818 2.45453V8.99998H183.335V2.45453H184.818ZM187.423 4.58521H189.353C190.188 4.58521 190.835 4.78833 191.292 5.19458C191.749 5.60083 191.979 6.1335 191.982 6.79259C191.979 7.22157 191.874 7.60225 191.667 7.93464C191.462 8.26703 191.164 8.52839 190.772 8.71873C190.383 8.90623 189.91 8.99998 189.353 8.99998H186.379V2.45453H187.866V7.73436H189.353C189.688 7.73436 189.964 7.64913 190.18 7.47867C190.396 7.30538 190.504 7.08379 190.504 6.8139C190.504 6.52981 190.396 6.29828 190.18 6.1193C189.964 5.94032 189.688 5.85083 189.353 5.85083H187.423V4.58521ZM192.796 8.99998V2.45453H194.339V8.99998H192.796ZM199.696 7.20595L201.64 2.45453H202.884L200.238 8.99998H199.159L196.573 2.45453H197.804L199.696 7.20595ZM197.417 2.45453V8.99998H195.929V2.45453H197.417ZM202.04 8.99998V2.45453H203.515V8.99998H202.04ZM208.047 11.4545V2.45453H209.564V3.53691H209.653C209.733 3.37782 209.845 3.20879 209.99 3.02981C210.135 2.84799 210.331 2.69316 210.578 2.56532C210.825 2.43464 211.14 2.3693 211.524 2.3693C212.029 2.3693 212.485 2.49856 212.892 2.75708C213.301 3.01276 213.625 3.39203 213.863 3.89487C214.105 4.39487 214.225 5.0085 214.225 5.73578C214.225 6.45453 214.108 7.06532 213.872 7.56816C213.636 8.071 213.315 8.45453 212.909 8.71873C212.502 8.98293 212.042 9.11504 211.528 9.11504C211.153 9.11504 210.842 9.05254 210.595 8.92754C210.348 8.80254 210.149 8.65197 209.998 8.47583C209.85 8.29685 209.735 8.12782 209.653 7.96873H209.589V11.4545H208.047ZM209.559 5.72725C209.559 6.15055 209.619 6.52129 209.738 6.83947C209.86 7.15765 210.035 7.40623 210.262 7.58521C210.493 7.76134 210.771 7.84941 211.098 7.84941C211.439 7.84941 211.724 7.7585 211.954 7.57668C212.184 7.39203 212.358 7.1406 212.474 6.82242C212.593 6.5014 212.653 6.13634 212.653 5.72725C212.653 5.321 212.595 4.96021 212.478 4.64487C212.362 4.32953 212.189 4.08237 211.958 3.90339C211.728 3.72441 211.441 3.63492 211.098 3.63492C210.768 3.63492 210.488 3.72157 210.258 3.89487C210.028 4.06816 209.853 4.31106 209.734 4.62356C209.618 4.93606 209.559 5.30396 209.559 5.72725ZM218.444 9.12782C217.788 9.12782 217.221 8.99146 216.744 8.71873C216.27 8.44316 215.904 8.05396 215.649 7.55112C215.393 7.04543 215.265 6.45026 215.265 5.7656C215.265 5.09231 215.393 4.5014 215.649 3.99288C215.907 3.48151 216.268 3.08379 216.731 2.7997C217.194 2.51276 217.738 2.3693 218.363 2.3693C218.767 2.3693 219.147 2.43464 219.505 2.56532C219.866 2.69316 220.184 2.89203 220.46 3.16191C220.738 3.4318 220.957 3.77555 221.116 4.19316C221.275 4.60793 221.355 5.10225 221.355 5.67612V6.14913H215.99V5.10936H219.876C219.873 4.8139 219.809 4.55112 219.684 4.321C219.559 4.08805 219.385 3.90481 219.16 3.77129C218.939 3.63776 218.68 3.571 218.385 3.571C218.069 3.571 217.792 3.64771 217.554 3.80112C217.315 3.95168 217.129 4.15055 216.995 4.39771C216.865 4.64203 216.798 4.91049 216.795 5.2031V6.11078C216.795 6.49146 216.865 6.81816 217.004 7.09089C217.143 7.36078 217.338 7.56816 217.588 7.71305C217.838 7.85509 218.13 7.92612 218.466 7.92612C218.69 7.92612 218.893 7.89487 219.075 7.83237C219.257 7.76703 219.414 7.67186 219.548 7.54686C219.681 7.42186 219.782 7.26703 219.85 7.08237L221.291 7.2443C221.2 7.62498 221.027 7.95737 220.771 8.24146C220.518 8.52271 220.194 8.74146 219.799 8.89771C219.404 9.05112 218.953 9.12782 218.444 9.12782ZM225.515 9.12782C224.862 9.12782 224.3 8.98436 223.832 8.69742C223.366 8.41049 223.006 8.01418 222.754 7.5085C222.504 6.99998 222.379 6.41475 222.379 5.75282C222.379 5.08805 222.506 4.5014 222.762 3.99288C223.018 3.48151 223.379 3.08379 223.844 2.7997C224.313 2.51276 224.867 2.3693 225.506 2.3693C226.038 2.3693 226.508 2.46731 226.917 2.66333C227.329 2.85651 227.657 3.13066 227.901 3.48578C228.146 3.83805 228.285 4.24998 228.319 4.72157H226.844C226.785 4.40623 226.643 4.14345 226.418 3.93322C226.197 3.72015 225.9 3.61362 225.528 3.61362C225.212 3.61362 224.935 3.69884 224.697 3.8693C224.458 4.03691 224.272 4.27839 224.138 4.59373C224.008 4.90907 223.942 5.28691 223.942 5.72725C223.942 6.17328 224.008 6.5568 224.138 6.87782C224.269 7.196 224.452 7.44174 224.688 7.61504C224.927 7.78549 225.207 7.87072 225.528 7.87072C225.755 7.87072 225.958 7.8281 226.137 7.74288C226.319 7.65481 226.471 7.52839 226.593 7.36362C226.715 7.19884 226.799 6.99856 226.844 6.76276H228.319C228.282 7.22583 228.146 7.63634 227.91 7.9943C227.674 8.34941 227.353 8.62782 226.947 8.82953C226.54 9.02839 226.063 9.12782 225.515 9.12782ZM230.544 11.4545C230.334 11.4545 230.14 11.4375 229.961 11.4034C229.784 11.3722 229.644 11.3352 229.539 11.2926L229.897 10.0909C230.121 10.1563 230.321 10.1875 230.498 10.1847C230.674 10.1818 230.828 10.1264 230.962 10.0185C231.098 9.91333 231.213 9.7372 231.307 9.49004L231.439 9.13634L229.066 2.45453H230.702L232.211 7.39771H232.279L233.792 2.45453H235.432L232.811 9.79259C232.689 10.1392 232.527 10.4361 232.326 10.6832C232.124 10.9332 231.877 11.1236 231.584 11.2543C231.294 11.3878 230.948 11.4545 230.544 11.4545ZM236.5 11.4545V2.45453H238.017V3.53691H238.106C238.186 3.37782 238.298 3.20879 238.443 3.02981C238.588 2.84799 238.784 2.69316 239.031 2.56532C239.278 2.43464 239.593 2.3693 239.977 2.3693C240.483 2.3693 240.939 2.49856 241.345 2.75708C241.754 3.01276 242.078 3.39203 242.316 3.89487C242.558 4.39487 242.679 5.0085 242.679 5.73578C242.679 6.45453 242.561 7.06532 242.325 7.56816C242.089 8.071 241.768 8.45453 241.362 8.71873C240.956 8.98293 240.495 9.11504 239.981 9.11504C239.606 9.11504 239.295 9.05254 239.048 8.92754C238.801 8.80254 238.602 8.65197 238.451 8.47583C238.304 8.29685 238.189 8.12782 238.106 7.96873H238.042V11.4545H236.5ZM238.012 5.72725C238.012 6.15055 238.072 6.52129 238.191 6.83947C238.314 7.15765 238.488 7.40623 238.716 7.58521C238.946 7.76134 239.224 7.84941 239.551 7.84941C239.892 7.84941 240.177 7.7585 240.407 7.57668C240.637 7.39203 240.811 7.1406 240.927 6.82242C241.047 6.5014 241.106 6.13634 241.106 5.72725C241.106 5.321 241.048 4.96021 240.931 4.64487C240.815 4.32953 240.642 4.08237 240.412 3.90339C240.181 3.72441 239.895 3.63492 239.551 3.63492C239.221 3.63492 238.941 3.72157 238.711 3.89487C238.481 4.06816 238.306 4.31106 238.187 4.62356C238.071 4.93606 238.012 5.30396 238.012 5.72725ZM246.855 9.12782C246.201 9.12782 245.64 8.98436 245.172 8.69742C244.706 8.41049 244.346 8.01418 244.093 7.5085C243.843 6.99998 243.718 6.41475 243.718 5.75282C243.718 5.08805 243.846 4.5014 244.102 3.99288C244.358 3.48151 244.718 3.08379 245.184 2.7997C245.653 2.51276 246.207 2.3693 246.846 2.3693C247.377 2.3693 247.848 2.46731 248.257 2.66333C248.669 2.85651 248.997 3.13066 249.241 3.48578C249.485 3.83805 249.625 4.24998 249.659 4.72157H248.184C248.125 4.40623 247.983 4.14345 247.758 3.93322C247.537 3.72015 247.24 3.61362 246.868 3.61362C246.552 3.61362 246.275 3.69884 246.037 3.8693C245.798 4.03691 245.612 4.27839 245.478 4.59373C245.348 4.90907 245.282 5.28691 245.282 5.72725C245.282 6.17328 245.348 6.5568 245.478 6.87782C245.609 7.196 245.792 7.44174 246.028 7.61504C246.267 7.78549 246.547 7.87072 246.868 7.87072C247.095 7.87072 247.298 7.8281 247.477 7.74288C247.659 7.65481 247.811 7.52839 247.933 7.36362C248.055 7.19884 248.139 6.99856 248.184 6.76276H249.659C249.622 7.22583 249.485 7.63634 249.25 7.9943C249.014 8.34941 248.693 8.62782 248.287 8.82953C247.88 9.02839 247.403 9.12782 246.855 9.12782ZM252.809 9.13208C252.394 9.13208 252.021 9.05822 251.688 8.91049C251.359 8.75992 251.097 8.53833 250.904 8.24572C250.714 7.9531 250.619 7.59231 250.619 7.16333C250.619 6.79401 250.687 6.48862 250.823 6.24714C250.96 6.00566 251.146 5.81248 251.381 5.66759C251.617 5.52271 251.883 5.41333 252.178 5.33947C252.477 5.26276 252.785 5.20737 253.103 5.17328C253.487 5.1335 253.798 5.09799 254.036 5.06674C254.275 5.03265 254.448 4.98151 254.556 4.91333C254.667 4.84231 254.722 4.73293 254.722 4.58521V4.55964C254.722 4.23862 254.627 3.99004 254.437 3.8139C254.246 3.63776 253.972 3.5497 253.614 3.5497C253.237 3.5497 252.937 3.63208 252.715 3.79686C252.496 3.96163 252.349 4.15623 252.272 4.38066L250.832 4.17612C250.945 3.77839 251.133 3.446 251.394 3.17896C251.656 2.90907 251.975 2.70737 252.353 2.57384C252.731 2.43748 253.148 2.3693 253.606 2.3693C253.921 2.3693 254.235 2.40623 254.548 2.48009C254.86 2.55396 255.146 2.67612 255.404 2.84657C255.663 3.01418 255.87 3.24288 256.026 3.53265C256.185 3.82242 256.265 4.18464 256.265 4.6193V8.99998H254.782V8.10083H254.731C254.637 8.28265 254.505 8.4531 254.335 8.6122C254.167 8.76845 253.955 8.89487 253.7 8.99146C253.447 9.08521 253.15 9.13208 252.809 9.13208ZM253.21 7.99856C253.519 7.99856 253.788 7.93748 254.015 7.81532C254.242 7.69032 254.417 7.52555 254.539 7.321C254.664 7.11646 254.727 6.89345 254.727 6.65197V5.88066C254.678 5.92043 254.596 5.95737 254.479 5.99146C254.366 6.02555 254.238 6.05538 254.096 6.08095C253.954 6.10651 253.813 6.12924 253.674 6.14913C253.535 6.16901 253.414 6.18606 253.312 6.20026C253.082 6.23151 252.876 6.28265 252.694 6.35367C252.512 6.4247 252.369 6.52413 252.263 6.65197C252.158 6.77697 252.106 6.9389 252.106 7.13776C252.106 7.42186 252.21 7.63634 252.417 7.78123C252.624 7.92612 252.888 7.99856 253.21 7.99856ZM261.583 7.20595L263.526 2.45453H264.771L262.124 8.99998H261.046L258.46 2.45453H259.691L261.583 7.20595ZM259.303 2.45453V8.99998H257.816V2.45453H259.303ZM263.927 8.99998V2.45453H265.401V8.99998H263.927ZM43.1222 20.4545V21.7202H40.3011V27H38.7926V20.4545H43.1222ZM46.9446 27.1278C46.3054 27.1278 45.7514 26.9872 45.2827 26.706C44.8139 26.4247 44.4503 26.0312 44.1918 25.5256C43.9361 25.0199 43.8082 24.429 43.8082 23.7528C43.8082 23.0767 43.9361 22.4844 44.1918 21.9759C44.4503 21.4673 44.8139 21.0724 45.2827 20.7912C45.7514 20.5099 46.3054 20.3693 46.9446 20.3693C47.5838 20.3693 48.1378 20.5099 48.6065 20.7912C49.0753 21.0724 49.4375 21.4673 49.6932 21.9759C49.9517 22.4844 50.081 23.0767 50.081 23.7528C50.081 24.429 49.9517 25.0199 49.6932 25.5256C49.4375 26.0312 49.0753 26.4247 48.6065 26.706C48.1378 26.9872 47.5838 27.1278 46.9446 27.1278ZM46.9531 25.892C47.2997 25.892 47.5895 25.7969 47.8224 25.6065C48.0554 25.4134 48.2287 25.1548 48.3423 24.831C48.4588 24.5071 48.517 24.1463 48.517 23.7486C48.517 23.348 48.4588 22.9858 48.3423 22.6619C48.2287 22.3352 48.0554 22.0753 47.8224 21.8821C47.5895 21.6889 47.2997 21.5923 46.9531 21.5923C46.598 21.5923 46.3026 21.6889 46.0668 21.8821C45.8338 22.0753 45.6591 22.3352 45.5426 22.6619C45.429 22.9858 45.3722 23.348 45.3722 23.7486C45.3722 24.1463 45.429 24.5071 45.5426 24.831C45.6591 25.1548 45.8338 25.4134 46.0668 25.6065C46.3026 25.7969 46.598 25.892 46.9531 25.892ZM51.3903 29.4545V20.4545H52.9073V21.5369H52.9968C53.0763 21.3778 53.1886 21.2088 53.3335 21.0298C53.4783 20.848 53.6744 20.6932 53.9215 20.5653C54.1687 20.4347 54.484 20.3693 54.8675 20.3693C55.3732 20.3693 55.8292 20.4986 56.2354 20.7571C56.6445 21.0128 56.9684 21.392 57.207 21.8949C57.4485 22.3949 57.5692 23.0085 57.5692 23.7358C57.5692 24.4545 57.4513 25.0653 57.2156 25.5682C56.9798 26.071 56.6587 26.4545 56.2525 26.7188C55.8462 26.983 55.386 27.1151 54.8718 27.1151C54.4968 27.1151 54.1857 27.0526 53.9386 26.9276C53.6914 26.8026 53.4925 26.652 53.342 26.4759C53.1942 26.2969 53.0792 26.1278 52.9968 25.9688H52.9329V29.4545H51.3903ZM52.9031 23.7273C52.9031 24.1506 52.9627 24.5213 53.082 24.8395C53.2042 25.1577 53.3789 25.4062 53.6062 25.5852C53.8363 25.7614 54.1147 25.8494 54.4414 25.8494C54.7823 25.8494 55.0678 25.7585 55.2979 25.5767C55.5281 25.392 55.7013 25.1406 55.8178 24.8224C55.9371 24.5014 55.9968 24.1364 55.9968 23.7273C55.9968 23.321 55.9386 22.9602 55.8221 22.6449C55.7056 22.3295 55.5323 22.0824 55.3022 21.9034C55.0721 21.7244 54.7852 21.6349 54.4414 21.6349C54.1119 21.6349 53.832 21.7216 53.6019 21.8949C53.3718 22.0682 53.1971 22.3111 53.0778 22.6236C52.9613 22.9361 52.9031 23.304 52.9031 23.7273ZM61.7454 27.1278C61.1062 27.1278 60.5522 26.9872 60.0835 26.706C59.6147 26.4247 59.2511 26.0312 58.9925 25.5256C58.7369 25.0199 58.609 24.429 58.609 23.7528C58.609 23.0767 58.7369 22.4844 58.9925 21.9759C59.2511 21.4673 59.6147 21.0724 60.0835 20.7912C60.5522 20.5099 61.1062 20.3693 61.7454 20.3693C62.3846 20.3693 62.9386 20.5099 63.4073 20.7912C63.8761 21.0724 64.2383 21.4673 64.494 21.9759C64.7525 22.4844 64.8817 23.0767 64.8817 23.7528C64.8817 24.429 64.7525 25.0199 64.494 25.5256C64.2383 26.0312 63.8761 26.4247 63.4073 26.706C62.9386 26.9872 62.3846 27.1278 61.7454 27.1278ZM61.7539 25.892C62.1005 25.892 62.3903 25.7969 62.6232 25.6065C62.8562 25.4134 63.0295 25.1548 63.1431 24.831C63.2596 24.5071 63.3178 24.1463 63.3178 23.7486C63.3178 23.348 63.2596 22.9858 63.1431 22.6619C63.0295 22.3352 62.8562 22.0753 62.6232 21.8821C62.3903 21.6889 62.1005 21.5923 61.7539 21.5923C61.3988 21.5923 61.1033 21.6889 60.8675 21.8821C60.6346 22.0753 60.4599 22.3352 60.3434 22.6619C60.2298 22.9858 60.1729 23.348 60.1729 23.7486C60.1729 24.1463 60.2298 24.5071 60.3434 24.831C60.4599 25.1548 60.6346 25.4134 60.8675 25.6065C61.1033 25.7969 61.3988 25.892 61.7539 25.892ZM65.6115 28.9006V25.7301H66.1314C66.2706 25.6222 66.3871 25.4759 66.4808 25.2912C66.5746 25.1037 66.6513 24.8835 66.7109 24.6307C66.7734 24.375 66.8246 24.0895 66.8643 23.7741C66.9041 23.456 66.9396 23.1136 66.9709 22.7472L67.1584 20.4545H71.8885V25.7301H72.9027V28.9006H71.4112V27H67.1286V28.9006H65.6115ZM67.7166 25.7301H70.4141V21.6989H68.4964L68.3942 22.7472C68.3374 23.4403 68.2621 24.0341 68.1683 24.5284C68.0746 25.0227 67.924 25.4233 67.7166 25.7301ZM75.9379 27.1321C75.5231 27.1321 75.1495 27.0582 74.8171 26.9105C74.4876 26.7599 74.2262 26.5384 74.033 26.2457C73.8427 25.9531 73.7475 25.5923 73.7475 25.1634C73.7475 24.794 73.8157 24.4886 73.9521 24.2472C74.0884 24.0057 74.2745 23.8125 74.5103 23.6676C74.7461 23.5227 75.0117 23.4134 75.3072 23.3395C75.6055 23.2628 75.9137 23.2074 76.2319 23.1733C76.6154 23.1335 76.9265 23.098 77.1651 23.0668C77.4038 23.0327 77.5771 22.9815 77.685 22.9134C77.7958 22.8423 77.8512 22.733 77.8512 22.5852V22.5597C77.8512 22.2386 77.756 21.9901 77.5657 21.8139C77.3754 21.6378 77.1012 21.5497 76.7433 21.5497C76.3654 21.5497 76.0657 21.6321 75.8441 21.7969C75.6254 21.9616 75.4776 22.1562 75.4009 22.3807L73.9606 22.1761C74.0742 21.7784 74.2617 21.446 74.5231 21.179C74.7844 20.9091 75.104 20.7074 75.4819 20.5739C75.8597 20.4375 76.2773 20.3693 76.7347 20.3693C77.0501 20.3693 77.364 20.4062 77.6765 20.4801C77.989 20.554 78.2745 20.6761 78.533 20.8466C78.7915 21.0142 78.9989 21.2429 79.1552 21.5327C79.3143 21.8224 79.3938 22.1847 79.3938 22.6193V27H77.9109V26.1009H77.8597C77.766 26.2827 77.6339 26.4531 77.4634 26.6122C77.2958 26.7685 77.0842 26.8949 76.8285 26.9915C76.5756 27.0852 76.2788 27.1321 75.9379 27.1321ZM76.3384 25.9986C76.6481 25.9986 76.9165 25.9375 77.1438 25.8153C77.3711 25.6903 77.5458 25.5256 77.668 25.321C77.793 25.1165 77.8555 24.8935 77.8555 24.652V23.8807C77.8072 23.9205 77.7248 23.9574 77.6083 23.9915C77.4947 24.0256 77.3668 24.0554 77.2248 24.081C77.0827 24.1065 76.9421 24.1293 76.8029 24.1491C76.6637 24.169 76.543 24.1861 76.4407 24.2003C76.2106 24.2315 76.0046 24.2827 75.8228 24.3537C75.641 24.4247 75.4975 24.5241 75.3924 24.652C75.2873 24.777 75.2347 24.9389 75.2347 25.1378C75.2347 25.4219 75.3384 25.6364 75.5458 25.7812C75.7532 25.9261 76.0174 25.9986 76.3384 25.9986ZM83.9897 18.2727H85.9244L88.5153 24.5966H88.6175L91.2085 18.2727H93.1431V27H91.6261V21.0043H91.5451L89.1332 26.9744H87.9996L85.5877 20.9915H85.5067V27H83.9897V18.2727ZM97.6516 27.1278C97.0124 27.1278 96.4585 26.9872 95.9897 26.706C95.521 26.4247 95.1573 26.0312 94.8988 25.5256C94.6431 25.0199 94.5153 24.429 94.5153 23.7528C94.5153 23.0767 94.6431 22.4844 94.8988 21.9759C95.1573 21.4673 95.521 21.0724 95.9897 20.7912C96.4585 20.5099 97.0124 20.3693 97.6516 20.3693C98.2908 20.3693 98.8448 20.5099 99.3136 20.7912C99.7823 21.0724 100.145 21.4673 100.4 21.9759C100.659 22.4844 100.788 23.0767 100.788 23.7528C100.788 24.429 100.659 25.0199 100.4 25.5256C100.145 26.0312 99.7823 26.4247 99.3136 26.706C98.8448 26.9872 98.2908 27.1278 97.6516 27.1278ZM97.6602 25.892C98.0067 25.892 98.2965 25.7969 98.5295 25.6065C98.7624 25.4134 98.9357 25.1548 99.0494 24.831C99.1658 24.5071 99.2241 24.1463 99.2241 23.7486C99.2241 23.348 99.1658 22.9858 99.0494 22.6619C98.9357 22.3352 98.7624 22.0753 98.5295 21.8821C98.2965 21.6889 98.0067 21.5923 97.6602 21.5923C97.305 21.5923 97.0096 21.6889 96.7738 21.8821C96.5408 22.0753 96.3661 22.3352 96.2496 22.6619C96.136 22.9858 96.0792 23.348 96.0792 23.7486C96.0792 24.1463 96.136 24.5071 96.2496 24.831C96.3661 25.1548 96.5408 25.4134 96.7738 25.6065C97.0096 25.7969 97.305 25.892 97.6602 25.892ZM104.952 27.1278C104.299 27.1278 103.738 26.9844 103.269 26.6974C102.803 26.4105 102.444 26.0142 102.191 25.5085C101.941 25 101.816 24.4148 101.816 23.7528C101.816 23.0881 101.944 22.5014 102.2 21.9929C102.455 21.4815 102.816 21.0838 103.282 20.7997C103.751 20.5128 104.305 20.3693 104.944 20.3693C105.475 20.3693 105.945 20.4673 106.354 20.6634C106.766 20.8565 107.094 21.1307 107.339 21.4858C107.583 21.8381 107.722 22.25 107.756 22.7216H106.282C106.222 22.4062 106.08 22.1435 105.856 21.9332C105.634 21.7202 105.337 21.6136 104.965 21.6136C104.65 21.6136 104.373 21.6989 104.134 21.8693C103.896 22.0369 103.71 22.2784 103.576 22.5938C103.445 22.9091 103.38 23.2869 103.38 23.7273C103.38 24.1733 103.445 24.5568 103.576 24.8778C103.707 25.196 103.89 25.4418 104.126 25.6151C104.364 25.7855 104.644 25.8707 104.965 25.8707C105.192 25.8707 105.396 25.8281 105.575 25.7429C105.756 25.6548 105.908 25.5284 106.031 25.3636C106.153 25.1989 106.237 24.9986 106.282 24.7628H107.756C107.719 25.2259 107.583 25.6364 107.347 25.9943C107.112 26.3494 106.79 26.6278 106.384 26.8295C105.978 27.0284 105.501 27.1278 104.952 27.1278ZM109.023 27V20.4545H110.566V23.0966H111.128L113.097 20.4545H114.955L112.53 23.6676L114.98 27H113.114L111.32 24.5327H110.566V27H109.023ZM115.855 27V20.4545H118.604C119.379 20.4545 119.991 20.6094 120.44 20.919C120.892 21.2287 121.118 21.6605 121.118 22.2145C121.118 22.581 120.99 22.8807 120.734 23.1136C120.482 23.3437 120.136 23.4986 119.699 23.5781C120.043 23.6065 120.344 23.6932 120.602 23.8381C120.864 23.983 121.068 24.1733 121.216 24.4091C121.364 24.6449 121.438 24.9162 121.438 25.223C121.438 25.5838 121.342 25.8977 121.152 26.1648C120.964 26.429 120.69 26.6349 120.33 26.7827C119.972 26.9276 119.537 27 119.026 27H115.855ZM117.3 25.7855H119.026C119.31 25.7855 119.533 25.7187 119.695 25.5852C119.857 25.4489 119.938 25.2642 119.938 25.0312C119.938 24.7614 119.857 24.5497 119.695 24.3963C119.533 24.2401 119.31 24.1619 119.026 24.1619H117.3V25.7855ZM117.3 23.1648H118.634C118.844 23.1648 119.024 23.1349 119.175 23.0753C119.325 23.0128 119.44 22.9261 119.52 22.8153C119.599 22.7017 119.639 22.5668 119.639 22.4105C119.639 22.1861 119.547 22.0099 119.362 21.8821C119.18 21.7543 118.928 21.6903 118.604 21.6903H117.3V23.1648ZM123.755 22.5852H125.685C126.52 22.5852 127.167 22.7884 127.624 23.1946C128.081 23.6009 128.311 24.1335 128.314 24.7926C128.311 25.2216 128.206 25.6023 127.999 25.9347C127.794 26.267 127.496 26.5284 127.104 26.7188C126.715 26.9062 126.242 27 125.685 27H122.711V20.4545H124.198V25.7344H125.685C126.02 25.7344 126.296 25.6491 126.512 25.4787C126.728 25.3054 126.836 25.0838 126.836 24.8139C126.836 24.5298 126.728 24.2983 126.512 24.1193C126.296 23.9403 126.02 23.8509 125.685 23.8509H123.755V22.5852ZM129.128 27V20.4545H130.671V27H129.128Z" fill="#1A1A1A"/>
<path d="M45.0597 46.1618L44.9602 48.7187H44.0511V46.9999H43.5398V46.1618H45.0597ZM38.8807 46.9999V39.7272H39.7188V46.1902H43.4688V39.7272H44.3068V46.9999H38.8807ZM47.1149 45.7641L49.7427 41.5454H50.7086V46.9999H49.8706V42.7811L47.2569 46.9999H46.2768V41.5454H47.1149V45.7641ZM54.4595 48.8607V39.7272H55.2976V48.8607H54.4595ZM54.4595 47.1135C54.0902 47.1135 53.754 47.0472 53.451 46.9147C53.148 46.7797 52.8875 46.5892 52.6697 46.3429C52.4519 46.0944 52.2839 45.7972 52.1655 45.4516C52.0471 45.106 51.9879 44.7224 51.9879 44.301C51.9879 43.8749 52.0471 43.489 52.1655 43.1434C52.2839 42.7954 52.4519 42.4971 52.6697 42.2485C52.8875 41.9999 53.148 41.8093 53.451 41.6767C53.754 41.5418 54.0902 41.4743 54.4595 41.4743H54.7152V47.1135H54.4595ZM54.4595 46.3607H54.6016V42.2272H54.4595C54.1802 42.2272 53.9375 42.284 53.7315 42.3976C53.5256 42.5089 53.3551 42.6616 53.2202 42.8557C53.0876 43.0475 52.9882 43.2677 52.9219 43.5162C52.858 43.7648 52.826 44.0264 52.826 44.301C52.826 44.6656 52.884 45.0042 53 45.3167C53.116 45.6292 53.2947 45.8813 53.5362 46.0731C53.7777 46.2648 54.0855 46.3607 54.4595 46.3607ZM55.2976 47.1135H55.0419V41.4743H55.2976C55.6669 41.4743 56.0031 41.5418 56.3061 41.6767C56.6091 41.8093 56.8696 41.9999 57.0874 42.2485C57.3052 42.4971 57.4732 42.7954 57.5916 43.1434C57.71 43.489 57.7692 43.8749 57.7692 44.301C57.7692 44.7224 57.71 45.106 57.5916 45.4516C57.4732 45.7972 57.3052 46.0944 57.0874 46.3429C56.8696 46.5892 56.6091 46.7797 56.3061 46.9147C56.0031 47.0472 55.6669 47.1135 55.2976 47.1135ZM55.2976 46.3607C55.5793 46.3607 55.822 46.3062 56.0256 46.1973C56.2315 46.0861 56.4008 45.9346 56.5334 45.7428C56.6683 45.5487 56.7678 45.3285 56.8317 45.0823C56.898 44.8337 56.9311 44.5733 56.9311 44.301C56.9311 43.9365 56.8731 43.5967 56.7571 43.2819C56.6411 42.967 56.4624 42.7125 56.2209 42.5184C55.9794 42.3242 55.6716 42.2272 55.2976 42.2272H55.1555V46.3607H55.2976ZM59.0502 49.0454V41.5454H59.8599V42.4118H59.9593C60.0209 42.3171 60.1061 42.1964 60.215 42.0496C60.3263 41.9005 60.4849 41.7679 60.6909 41.6519C60.8992 41.5335 61.1809 41.4743 61.536 41.4743C61.9953 41.4743 62.4002 41.5892 62.7505 41.8188C63.1009 42.0484 63.3743 42.374 63.5708 42.7954C63.7673 43.2168 63.8656 43.7139 63.8656 44.2868C63.8656 44.8645 63.7673 45.3652 63.5708 45.789C63.3743 46.2104 63.1021 46.5371 62.7541 46.7691C62.4061 46.9987 62.0048 47.1135 61.5502 47.1135C61.1999 47.1135 60.9193 47.0555 60.7086 46.9395C60.4979 46.8212 60.3358 46.6874 60.2221 46.5383C60.1085 46.3867 60.0209 46.2613 59.9593 46.1618H59.8883V49.0454H59.0502ZM59.8741 44.2726C59.8741 44.6846 59.9345 45.048 60.0552 45.3628C60.176 45.6753 60.3523 45.9204 60.5843 46.0979C60.8163 46.2731 61.1004 46.3607 61.4366 46.3607C61.787 46.3607 62.0794 46.2684 62.3137 46.0837C62.5505 45.8967 62.728 45.6457 62.8464 45.3309C62.9672 45.0136 63.0275 44.6609 63.0275 44.2726C63.0275 43.8891 62.9683 43.5435 62.85 43.2357C62.734 42.9256 62.5576 42.6805 62.3208 42.5006C62.0865 42.3183 61.7917 42.2272 61.4366 42.2272C61.0957 42.2272 60.8092 42.3136 60.5772 42.4864C60.3452 42.6569 60.17 42.896 60.0517 43.2037C59.9333 43.5091 59.8741 43.8654 59.8741 44.2726ZM67.3599 47.1135C66.8675 47.1135 66.4354 46.9963 66.0637 46.762C65.6944 46.5276 65.4056 46.1997 65.1973 45.7783C64.9913 45.3569 64.8883 44.8645 64.8883 44.301C64.8883 43.7329 64.9913 43.2369 65.1973 42.8131C65.4056 42.3893 65.6944 42.0603 66.0637 41.8259C66.4354 41.5915 66.8675 41.4743 67.3599 41.4743C67.8523 41.4743 68.2832 41.5915 68.6525 41.8259C69.0242 42.0603 69.313 42.3893 69.519 42.8131C69.7273 43.2369 69.8315 43.7329 69.8315 44.301C69.8315 44.8645 69.7273 45.3569 69.519 45.7783C69.313 46.1997 69.0242 46.5276 68.6525 46.762C68.2832 46.9963 67.8523 47.1135 67.3599 47.1135ZM67.3599 46.3607C67.734 46.3607 68.0417 46.2648 68.2832 46.0731C68.5247 45.8813 68.7034 45.6292 68.8194 45.3167C68.9354 45.0042 68.9934 44.6656 68.9934 44.301C68.9934 43.9365 68.9354 43.5967 68.8194 43.2819C68.7034 42.967 68.5247 42.7125 68.2832 42.5184C68.0417 42.3242 67.734 42.2272 67.3599 42.2272C66.9859 42.2272 66.6781 42.3242 66.4366 42.5184C66.1951 42.7125 66.0164 42.967 65.9004 43.2819C65.7844 43.5967 65.7264 43.9365 65.7264 44.301C65.7264 44.6656 65.7844 45.0042 65.9004 45.3167C66.0164 45.6292 66.1951 45.8813 66.4366 46.0731C66.6781 46.2648 66.9859 46.3607 67.3599 46.3607ZM71.1108 46.9999V41.5454H73.3409C73.928 41.5454 74.3944 41.6779 74.7401 41.9431C75.0857 42.2082 75.2585 42.5586 75.2585 42.9942C75.2585 43.3257 75.1603 43.5825 74.9638 43.7648C74.7673 43.9447 74.5152 44.0667 74.2074 44.1306C74.4086 44.159 74.6039 44.23 74.7933 44.3437C74.9851 44.4573 75.1437 44.6135 75.2692 44.8124C75.3946 45.0089 75.4574 45.2504 75.4574 45.5368C75.4574 45.8162 75.3864 46.066 75.2443 46.2861C75.1023 46.5063 74.8987 46.6803 74.6335 46.8081C74.3684 46.936 74.0511 46.9999 73.6818 46.9999H71.1108ZM71.9062 46.2329H73.6818C73.9706 46.2329 74.1967 46.1642 74.3601 46.0269C74.5234 45.8896 74.6051 45.7026 74.6051 45.4658C74.6051 45.1841 74.5234 44.9627 74.3601 44.8017C74.1967 44.6384 73.9706 44.5567 73.6818 44.5567H71.9062V46.2329ZM71.9062 43.8323H73.3409C73.5658 43.8323 73.7588 43.8015 73.9197 43.74C74.0807 43.676 74.2038 43.5861 74.2891 43.4701C74.3767 43.3517 74.4205 43.212 74.4205 43.051C74.4205 42.8214 74.3246 42.6415 74.1328 42.5113C73.9411 42.3787 73.6771 42.3124 73.3409 42.3124H71.9062V43.8323ZM78.3311 47.1277C77.9855 47.1277 77.6718 47.0626 77.3901 46.9324C77.1084 46.7999 76.8846 46.6093 76.7189 46.3607C76.5532 46.1097 76.4703 45.8067 76.4703 45.4516C76.4703 45.1391 76.5319 44.8858 76.655 44.6917C76.7781 44.4952 76.9426 44.3413 77.1486 44.23C77.3546 44.1187 77.5819 44.0359 77.8304 43.9814C78.0814 43.9246 78.3335 43.8796 78.5868 43.8465C78.9183 43.8039 79.187 43.7719 79.3929 43.7506C79.6013 43.7269 79.7528 43.6879 79.8475 43.6334C79.9445 43.579 79.9931 43.4843 79.9931 43.3493V43.3209C79.9931 42.9705 79.8972 42.6983 79.7054 42.5042C79.516 42.31 79.2284 42.213 78.8425 42.213C78.4424 42.213 78.1287 42.3006 77.9015 42.4758C77.6742 42.6509 77.5144 42.838 77.4221 43.0368L76.6266 42.7527C76.7686 42.4213 76.958 42.1633 77.1948 41.9786C77.4339 41.7916 77.6943 41.6614 77.976 41.588C78.2601 41.5122 78.5395 41.4743 78.8141 41.4743C78.9893 41.4743 79.1905 41.4956 79.4178 41.5383C79.6474 41.5785 79.8688 41.6625 80.0819 41.7904C80.2973 41.9182 80.476 42.1112 80.6181 42.3692C80.7601 42.6273 80.8311 42.9729 80.8311 43.4061V46.9999H79.9931V46.2613H79.9505C79.8936 46.3796 79.7989 46.5063 79.6664 46.6412C79.5338 46.7762 79.3574 46.891 79.1373 46.9857C78.9171 47.0804 78.6484 47.1277 78.3311 47.1277ZM78.459 46.3749C78.7904 46.3749 79.0698 46.3098 79.2971 46.1796C79.5267 46.0494 79.6995 45.8813 79.8155 45.6753C79.9339 45.4694 79.9931 45.2527 79.9931 45.0255V44.2584C79.9576 44.301 79.8794 44.3401 79.7587 44.3756C79.6403 44.4088 79.503 44.4383 79.3468 44.4644C79.1929 44.4881 79.0426 44.5094 78.8958 44.5283C78.7514 44.5449 78.6342 44.5591 78.5442 44.5709C78.3264 44.5993 78.1228 44.6455 77.9334 44.7094C77.7464 44.771 77.5949 44.8645 77.4789 44.99C77.3652 45.1131 77.3084 45.2811 77.3084 45.4942C77.3084 45.7854 77.4161 46.0056 77.6316 46.1547C77.8494 46.3015 78.1252 46.3749 78.459 46.3749ZM85.642 46.9999V42.3124H84.1932C83.8665 42.3124 83.6096 42.3882 83.4226 42.5397C83.2356 42.6912 83.142 42.8995 83.142 43.1647C83.142 43.4251 83.2261 43.6299 83.3942 43.779C83.5646 43.9282 83.7978 44.0027 84.0938 44.0027H85.8551V44.784H84.0938C83.7244 44.784 83.406 44.7189 83.1385 44.5887C82.871 44.4585 82.665 44.2726 82.5206 44.0311C82.3762 43.7873 82.304 43.4985 82.304 43.1647C82.304 42.8285 82.3797 42.5397 82.5312 42.2982C82.6828 42.0567 82.8994 41.8709 83.1811 41.7407C83.4652 41.6105 83.8026 41.5454 84.1932 41.5454H86.4375V46.9999H85.642ZM82.0057 46.9999L83.554 44.2868H84.4631L82.9148 46.9999H82.0057ZM90.7885 46.9999V41.5454H95.0783V46.9999H94.2402V42.3266H91.6266V46.9999H90.7885ZM96.1259 46.9999V46.2187H96.3248C96.4881 46.2187 96.6242 46.1867 96.7331 46.1228C96.842 46.0565 96.9296 45.9417 96.9959 45.7783C97.0646 45.6126 97.1167 45.3829 97.1522 45.0894C97.19 44.7935 97.2173 44.417 97.2338 43.9601L97.3333 41.5454H100.97V46.9999H100.132V42.3266H98.1287L98.0435 44.2726C98.0246 44.7201 97.9843 45.1142 97.9228 45.4552C97.8636 45.7937 97.7724 46.0778 97.6493 46.3074C97.5286 46.5371 97.3676 46.7099 97.1664 46.8259C96.9651 46.9419 96.713 46.9999 96.41 46.9999H96.1259ZM104.112 47.1277C103.767 47.1277 103.453 47.0626 103.171 46.9324C102.89 46.7999 102.666 46.6093 102.5 46.3607C102.334 46.1097 102.252 45.8067 102.252 45.4516C102.252 45.1391 102.313 44.8858 102.436 44.6917C102.559 44.4952 102.724 44.3413 102.93 44.23C103.136 44.1187 103.363 44.0359 103.612 43.9814C103.863 43.9246 104.115 43.8796 104.368 43.8465C104.7 43.8039 104.968 43.7719 105.174 43.7506C105.383 43.7269 105.534 43.6879 105.629 43.6334C105.726 43.579 105.774 43.4843 105.774 43.3493V43.3209C105.774 42.9705 105.678 42.6983 105.487 42.5042C105.297 42.31 105.01 42.213 104.624 42.213C104.224 42.213 103.91 42.3006 103.683 42.4758C103.455 42.6509 103.296 42.838 103.203 43.0368L102.408 42.7527C102.55 42.4213 102.739 42.1633 102.976 41.9786C103.215 41.7916 103.476 41.6614 103.757 41.588C104.041 41.5122 104.321 41.4743 104.595 41.4743C104.771 41.4743 104.972 41.4956 105.199 41.5383C105.429 41.5785 105.65 41.6625 105.863 41.7904C106.079 41.9182 106.257 42.1112 106.399 42.3692C106.541 42.6273 106.612 42.9729 106.612 43.4061V46.9999H105.774V46.2613H105.732C105.675 46.3796 105.58 46.5063 105.448 46.6412C105.315 46.7762 105.139 46.891 104.919 46.9857C104.698 47.0804 104.43 47.1277 104.112 47.1277ZM104.24 46.3749C104.572 46.3749 104.851 46.3098 105.078 46.1796C105.308 46.0494 105.481 45.8813 105.597 45.6753C105.715 45.4694 105.774 45.2527 105.774 45.0255V44.2584C105.739 44.301 105.661 44.3401 105.54 44.3756C105.422 44.4088 105.284 44.4383 105.128 44.4644C104.974 44.4881 104.824 44.5094 104.677 44.5283C104.533 44.5449 104.415 44.5591 104.325 44.5709C104.108 44.5993 103.904 44.6455 103.715 44.7094C103.528 44.771 103.376 44.8645 103.26 44.99C103.146 45.1131 103.09 45.2811 103.09 45.4942C103.09 45.7854 103.197 46.0056 103.413 46.1547C103.631 46.3015 103.906 46.3749 104.24 46.3749ZM107.4 42.3266V41.5454H111.832V42.3266H110.042V46.9999H109.204V42.3266H107.4ZM114.987 48.8607V39.7272H115.825V48.8607H114.987ZM114.987 47.1135C114.618 47.1135 114.281 47.0472 113.978 46.9147C113.675 46.7797 113.415 46.5892 113.197 46.3429C112.979 46.0944 112.811 45.7972 112.693 45.4516C112.574 45.106 112.515 44.7224 112.515 44.301C112.515 43.8749 112.574 43.489 112.693 43.1434C112.811 42.7954 112.979 42.4971 113.197 42.2485C113.415 41.9999 113.675 41.8093 113.978 41.6767C114.281 41.5418 114.618 41.4743 114.987 41.4743H115.243V47.1135H114.987ZM114.987 46.3607H115.129V42.2272H114.987C114.708 42.2272 114.465 42.284 114.259 42.3976C114.053 42.5089 113.882 42.6616 113.748 42.8557C113.615 43.0475 113.516 43.2677 113.449 43.5162C113.385 43.7648 113.353 44.0264 113.353 44.301C113.353 44.6656 113.411 45.0042 113.527 45.3167C113.643 45.6292 113.822 45.8813 114.064 46.0731C114.305 46.2648 114.613 46.3607 114.987 46.3607ZM115.825 47.1135H115.569V41.4743H115.825C116.194 41.4743 116.53 41.5418 116.833 41.6767C117.136 41.8093 117.397 41.9999 117.615 42.2485C117.833 42.4971 118.001 42.7954 118.119 43.1434C118.237 43.489 118.297 43.8749 118.297 44.301C118.297 44.7224 118.237 45.106 118.119 45.4516C118.001 45.7972 117.833 46.0944 117.615 46.3429C117.397 46.5892 117.136 46.7797 116.833 46.9147C116.53 47.0472 116.194 47.1135 115.825 47.1135ZM115.825 46.3607C116.107 46.3607 116.349 46.3062 116.553 46.1973C116.759 46.0861 116.928 45.9346 117.061 45.7428C117.196 45.5487 117.295 45.3285 117.359 45.0823C117.425 44.8337 117.458 44.5733 117.458 44.301C117.458 43.9365 117.4 43.5967 117.284 43.2819C117.168 42.967 116.99 42.7125 116.748 42.5184C116.507 42.3242 116.199 42.2272 115.825 42.2272H115.683V46.3607H115.825ZM121.794 47.1135C121.301 47.1135 120.869 46.9963 120.497 46.762C120.128 46.5276 119.839 46.1997 119.631 45.7783C119.425 45.3569 119.322 44.8645 119.322 44.301C119.322 43.7329 119.425 43.2369 119.631 42.8131C119.839 42.3893 120.128 42.0603 120.497 41.8259C120.869 41.5915 121.301 41.4743 121.794 41.4743C122.286 41.4743 122.717 41.5915 123.086 41.8259C123.458 42.0603 123.747 42.3893 123.953 42.8131C124.161 43.2369 124.265 43.7329 124.265 44.301C124.265 44.8645 124.161 45.3569 123.953 45.7783C123.747 46.1997 123.458 46.5276 123.086 46.762C122.717 46.9963 122.286 47.1135 121.794 47.1135ZM121.794 46.3607C122.168 46.3607 122.475 46.2648 122.717 46.0731C122.958 45.8813 123.137 45.6292 123.253 45.3167C123.369 45.0042 123.427 44.6656 123.427 44.301C123.427 43.9365 123.369 43.5967 123.253 43.2819C123.137 42.967 122.958 42.7125 122.717 42.5184C122.475 42.3242 122.168 42.2272 121.794 42.2272C121.419 42.2272 121.112 42.3242 120.87 42.5184C120.629 42.7125 120.45 42.967 120.334 43.2819C120.218 43.5967 120.16 43.9365 120.16 44.301C120.16 44.6656 120.218 45.0042 120.334 45.3167C120.45 45.6292 120.629 45.8813 120.87 46.0731C121.112 46.2648 121.419 46.3607 121.794 46.3607ZM125.544 49.0454V41.5454H126.354V42.4118H126.453C126.515 42.3171 126.6 42.1964 126.709 42.0496C126.82 41.9005 126.979 41.7679 127.185 41.6519C127.393 41.5335 127.675 41.4743 128.03 41.4743C128.489 41.4743 128.894 41.5892 129.245 41.8188C129.595 42.0484 129.868 42.374 130.065 42.7954C130.261 43.2168 130.36 43.7139 130.36 44.2868C130.36 44.8645 130.261 45.3652 130.065 45.789C129.868 46.2104 129.596 46.5371 129.248 46.7691C128.9 46.9987 128.499 47.1135 128.044 47.1135C127.694 47.1135 127.413 47.0555 127.203 46.9395C126.992 46.8212 126.83 46.6874 126.716 46.5383C126.603 46.3867 126.515 46.2613 126.453 46.1618H126.382V49.0454H125.544ZM126.368 44.2726C126.368 44.6846 126.429 45.048 126.549 45.3628C126.67 45.6753 126.846 45.9204 127.078 46.0979C127.31 46.2731 127.595 46.3607 127.931 46.3607C128.281 46.3607 128.574 46.2684 128.808 46.0837C129.045 45.8967 129.222 45.6457 129.341 45.3309C129.461 45.0136 129.522 44.6609 129.522 44.2726C129.522 43.8891 129.462 43.5435 129.344 43.2357C129.228 42.9256 129.052 42.6805 128.815 42.5006C128.581 42.3183 128.286 42.2272 127.931 42.2272C127.59 42.2272 127.303 42.3136 127.071 42.4864C126.839 42.6569 126.664 42.896 126.546 43.2037C126.427 43.5091 126.368 43.8654 126.368 44.2726ZM134.621 45.8635L136.525 41.5454H137.32L134.962 46.9999H134.28L131.965 41.5454H132.746L134.621 45.8635ZM132.476 41.5454V46.9999H131.638V41.5454H132.476ZM136.766 46.9999V41.5454H137.604V46.9999H136.766ZM140.743 47.1277C140.398 47.1277 140.084 47.0626 139.802 46.9324C139.52 46.7999 139.297 46.6093 139.131 46.3607C138.965 46.1097 138.882 45.8067 138.882 45.4516C138.882 45.1391 138.944 44.8858 139.067 44.6917C139.19 44.4952 139.355 44.3413 139.561 44.23C139.767 44.1187 139.994 44.0359 140.243 43.9814C140.493 43.9246 140.746 43.8796 140.999 43.8465C141.33 43.8039 141.599 43.7719 141.805 43.7506C142.013 43.7269 142.165 43.6879 142.26 43.6334C142.357 43.579 142.405 43.4843 142.405 43.3493V43.3209C142.405 42.9705 142.309 42.6983 142.118 42.5042C141.928 42.31 141.641 42.213 141.255 42.213C140.855 42.213 140.541 42.3006 140.314 42.4758C140.086 42.6509 139.926 42.838 139.834 43.0368L139.039 42.7527C139.181 42.4213 139.37 42.1633 139.607 41.9786C139.846 41.7916 140.106 41.6614 140.388 41.588C140.672 41.5122 140.952 41.4743 141.226 41.4743C141.401 41.4743 141.603 41.4956 141.83 41.5383C142.06 41.5785 142.281 41.6625 142.494 41.7904C142.709 41.9182 142.888 42.1112 143.03 42.3692C143.172 42.6273 143.243 42.9729 143.243 43.4061V46.9999H142.405V46.2613H142.363C142.306 46.3796 142.211 46.5063 142.078 46.6412C141.946 46.7762 141.77 46.891 141.549 46.9857C141.329 47.0804 141.06 47.1277 140.743 47.1277ZM140.871 46.3749C141.203 46.3749 141.482 46.3098 141.709 46.1796C141.939 46.0494 142.112 45.8813 142.228 45.6753C142.346 45.4694 142.405 45.2527 142.405 45.0255V44.2584C142.37 44.301 142.292 44.3401 142.171 44.3756C142.052 44.4088 141.915 44.4383 141.759 44.4644C141.605 44.4881 141.455 44.5094 141.308 44.5283C141.163 44.5449 141.046 44.5591 140.956 44.5709C140.739 44.5993 140.535 44.6455 140.346 44.7094C140.158 44.771 140.007 44.8645 139.891 44.99C139.777 45.1131 139.721 45.2811 139.721 45.4942C139.721 45.7854 139.828 46.0056 140.044 46.1547C140.261 46.3015 140.537 46.3749 140.871 46.3749ZM153.835 43.3635C153.835 44.1306 153.697 44.7935 153.42 45.3522C153.143 45.9109 152.763 46.3418 152.28 46.6448C151.797 46.9478 151.245 47.0993 150.625 47.0993C150.005 47.0993 149.453 46.9478 148.97 46.6448C148.487 46.3418 148.107 45.9109 147.83 45.3522C147.553 44.7935 147.415 44.1306 147.415 43.3635C147.415 42.5965 147.553 41.9336 147.83 41.3749C148.107 40.8162 148.487 40.3853 148.97 40.0823C149.453 39.7793 150.005 39.6277 150.625 39.6277C151.245 39.6277 151.797 39.7793 152.28 40.0823C152.763 40.3853 153.143 40.8162 153.42 41.3749C153.697 41.9336 153.835 42.5965 153.835 43.3635ZM152.983 43.3635C152.983 42.7338 152.878 42.2023 152.667 41.7691C152.459 41.3358 152.176 41.0079 151.818 40.7854C151.463 40.5629 151.066 40.4516 150.625 40.4516C150.185 40.4516 149.786 40.5629 149.428 40.7854C149.073 41.0079 148.79 41.3358 148.58 41.7691C148.371 42.2023 148.267 42.7338 148.267 43.3635C148.267 43.9933 148.371 44.5248 148.58 44.958C148.79 45.3912 149.073 45.7191 149.428 45.9417C149.786 46.1642 150.185 46.2755 150.625 46.2755C151.066 46.2755 151.463 46.1642 151.818 45.9417C152.176 45.7191 152.459 45.3912 152.667 44.958C152.878 44.5248 152.983 43.9933 152.983 43.3635ZM154.89 42.3266V41.5454H159.322V42.3266H157.532V46.9999H156.694V42.3266H154.89ZM160.544 46.9999V41.5454H161.382V43.9175H161.936L163.897 41.5454H164.976L162.775 44.1732L165.005 46.9999H163.925L162.135 44.6988H161.382V46.9999H160.544ZM165.915 49.0454V41.5454H166.725V42.4118H166.825C166.886 42.3171 166.971 42.1964 167.08 42.0496C167.192 41.9005 167.35 41.7679 167.556 41.6519C167.764 41.5335 168.046 41.4743 168.401 41.4743C168.861 41.4743 169.265 41.5892 169.616 41.8188C169.966 42.0484 170.24 42.374 170.436 42.7954C170.633 43.2168 170.731 43.7139 170.731 44.2868C170.731 44.8645 170.633 45.3652 170.436 45.789C170.24 46.2104 169.967 46.5371 169.619 46.7691C169.271 46.9987 168.87 47.1135 168.415 47.1135C168.065 47.1135 167.785 47.0555 167.574 46.9395C167.363 46.8212 167.201 46.6874 167.087 46.5383C166.974 46.3867 166.886 46.2613 166.825 46.1618H166.754V49.0454H165.915ZM166.739 44.2726C166.739 44.6846 166.8 45.048 166.92 45.3628C167.041 45.6753 167.218 45.9204 167.45 46.0979C167.682 46.2731 167.966 46.3607 168.302 46.3607C168.652 46.3607 168.945 46.2684 169.179 46.0837C169.416 45.8967 169.593 45.6457 169.712 45.3309C169.832 45.0136 169.893 44.6609 169.893 44.2726C169.893 43.8891 169.834 43.5435 169.715 43.2357C169.599 42.9256 169.423 42.6805 169.186 42.5006C168.952 42.3183 168.657 42.2272 168.302 42.2272C167.961 42.2272 167.674 42.3136 167.442 42.4864C167.21 42.6569 167.035 42.896 166.917 43.2037C166.799 43.5091 166.739 43.8654 166.739 44.2726ZM172.734 43.5198H174.296C174.935 43.5198 175.424 43.682 175.763 44.0063C176.101 44.3306 176.271 44.7414 176.271 45.2385C176.271 45.5652 176.195 45.8624 176.043 46.1299C175.892 46.395 175.669 46.6069 175.376 46.7655C175.082 46.9218 174.722 46.9999 174.296 46.9999H172.009V41.5454H172.847V46.2187H174.296C174.628 46.2187 174.9 46.1311 175.113 45.9559C175.326 45.7807 175.433 45.5558 175.433 45.2811C175.433 44.9923 175.326 44.7568 175.113 44.5745C174.9 44.3922 174.628 44.301 174.296 44.301H172.734V43.5198ZM177.137 46.9999V41.5454H177.975V46.9999H177.137ZM179.197 42.3266V41.5454H183.629V42.3266H181.839V46.9999H181.001V42.3266H179.197ZM185.575 43.5198H187.138C187.777 43.5198 188.266 43.682 188.605 44.0063C188.943 44.3306 189.112 44.7414 189.112 45.2385C189.112 45.5652 189.037 45.8624 188.885 46.1299C188.734 46.395 188.511 46.6069 188.218 46.7655C187.924 46.9218 187.564 46.9999 187.138 46.9999H184.851V41.5454H185.689V46.2187H187.138C187.469 46.2187 187.742 46.1311 187.955 45.9559C188.168 45.7807 188.274 45.5558 188.274 45.2811C188.274 44.9923 188.168 44.7568 187.955 44.5745C187.742 44.3922 187.469 44.301 187.138 44.301H185.575V43.5198ZM189.979 46.9999V41.5454H190.817V46.9999H189.979ZM193.189 45.7641L195.817 41.5454H196.783V46.9999H195.945V42.7811L193.331 46.9999H192.351V41.5454H193.189V45.7641ZM195.263 39.7272H196.044C196.044 40.1107 195.912 40.4244 195.646 40.6682C195.381 40.9121 195.021 41.034 194.567 41.034C194.119 41.034 193.763 40.9121 193.498 40.6682C193.235 40.4244 193.104 40.1107 193.104 39.7272H193.885C193.885 39.9118 193.936 40.074 194.038 40.2137C194.142 40.3534 194.318 40.4232 194.567 40.4232C194.816 40.4232 194.993 40.3534 195.1 40.2137C195.209 40.074 195.263 39.9118 195.263 39.7272ZM201.13 46.9999V41.5454H201.968V43.9175H202.522L204.483 41.5454H205.562L203.36 44.1732L205.591 46.9999H204.511L202.721 44.6988H201.968V46.9999H201.13ZM208.493 47.1135C208 47.1135 207.568 46.9963 207.197 46.762C206.827 46.5276 206.538 46.1997 206.33 45.7783C206.124 45.3569 206.021 44.8645 206.021 44.301C206.021 43.7329 206.124 43.2369 206.33 42.8131C206.538 42.3893 206.827 42.0603 207.197 41.8259C207.568 41.5915 208 41.4743 208.493 41.4743C208.985 41.4743 209.416 41.5915 209.785 41.8259C210.157 42.0603 210.446 42.3893 210.652 42.8131C210.86 43.2369 210.964 43.7329 210.964 44.301C210.964 44.8645 210.86 45.3569 210.652 45.7783C210.446 46.1997 210.157 46.5276 209.785 46.762C209.416 46.9963 208.985 47.1135 208.493 47.1135ZM208.493 46.3607C208.867 46.3607 209.175 46.2648 209.416 46.0731C209.657 45.8813 209.836 45.6292 209.952 45.3167C210.068 45.0042 210.126 44.6656 210.126 44.301C210.126 43.9365 210.068 43.5967 209.952 43.2819C209.836 42.967 209.657 42.7125 209.416 42.5184C209.175 42.3242 208.867 42.2272 208.493 42.2272C208.119 42.2272 207.811 42.3242 207.569 42.5184C207.328 42.7125 207.149 42.967 207.033 43.2819C206.917 43.5967 206.859 43.9365 206.859 44.301C206.859 44.6656 206.917 45.0042 207.033 45.3167C207.149 45.6292 207.328 45.8813 207.569 46.0731C207.811 46.2648 208.119 46.3607 208.493 46.3607ZM215.894 43.8891V44.6704H212.883V43.8891H215.894ZM213.082 41.5454V46.9999H212.244V41.5454H213.082ZM216.533 41.5454V46.9999H215.695V41.5454H216.533ZM217.322 42.3266V41.5454H221.754V42.3266H219.964V46.9999H219.126V42.3266H217.322ZM222.976 49.0454V41.5454H223.786V42.4118H223.885C223.947 42.3171 224.032 42.1964 224.141 42.0496C224.252 41.9005 224.411 41.7679 224.617 41.6519C224.825 41.5335 225.107 41.4743 225.462 41.4743C225.921 41.4743 226.326 41.5892 226.676 41.8188C227.027 42.0484 227.3 42.374 227.497 42.7954C227.693 43.2168 227.791 43.7139 227.791 44.2868C227.791 44.8645 227.693 45.3652 227.497 45.789C227.3 46.2104 227.028 46.5371 226.68 46.7691C226.332 46.9987 225.931 47.1135 225.476 47.1135C225.126 47.1135 224.845 47.0555 224.634 46.9395C224.424 46.8212 224.262 46.6874 224.148 46.5383C224.034 46.3867 223.947 46.2613 223.885 46.1618H223.814V49.0454H222.976ZM223.8 44.2726C223.8 44.6846 223.86 45.048 223.981 45.3628C224.102 45.6753 224.278 45.9204 224.51 46.0979C224.742 46.2731 225.026 46.3607 225.362 46.3607C225.713 46.3607 226.005 46.2684 226.24 46.0837C226.476 45.8967 226.654 45.6457 226.772 45.3309C226.893 45.0136 226.953 44.6609 226.953 44.2726C226.953 43.8891 226.894 43.5435 226.776 43.2357C226.66 42.9256 226.483 42.6805 226.247 42.5006C226.012 42.3183 225.718 42.2272 225.362 42.2272C225.021 42.2272 224.735 42.3136 224.503 42.4864C224.271 42.6569 224.096 42.896 223.977 43.2037C223.859 43.5091 223.8 43.8654 223.8 44.2726ZM231.286 47.1135C230.793 47.1135 230.361 46.9963 229.99 46.762C229.62 46.5276 229.331 46.1997 229.123 45.7783C228.917 45.3569 228.814 44.8645 228.814 44.301C228.814 43.7329 228.917 43.2369 229.123 42.8131C229.331 42.3893 229.62 42.0603 229.99 41.8259C230.361 41.5915 230.793 41.4743 231.286 41.4743C231.778 41.4743 232.209 41.5915 232.578 41.8259C232.95 42.0603 233.239 42.3893 233.445 42.8131C233.653 43.2369 233.757 43.7329 233.757 44.301C233.757 44.8645 233.653 45.3569 233.445 45.7783C233.239 46.1997 232.95 46.5276 232.578 46.762C232.209 46.9963 231.778 47.1135 231.286 47.1135ZM231.286 46.3607C231.66 46.3607 231.968 46.2648 232.209 46.0731C232.45 45.8813 232.629 45.6292 232.745 45.3167C232.861 45.0042 232.919 44.6656 232.919 44.301C232.919 43.9365 232.861 43.5967 232.745 43.2819C232.629 42.967 232.45 42.7125 232.209 42.5184C231.968 42.3242 231.66 42.2272 231.286 42.2272C230.912 42.2272 230.604 42.3242 230.362 42.5184C230.121 42.7125 229.942 42.967 229.826 43.2819C229.71 43.5967 229.652 43.9365 229.652 44.301C229.652 44.6656 229.71 45.0042 229.826 45.3167C229.942 45.6292 230.121 45.8813 230.362 46.0731C230.604 46.2648 230.912 46.3607 231.286 46.3607ZM234.554 46.9999V46.2187H234.752C234.916 46.2187 235.052 46.1867 235.161 46.1228C235.27 46.0565 235.357 45.9417 235.424 45.7783C235.492 45.6126 235.544 45.3829 235.58 45.0894C235.618 44.7935 235.645 44.417 235.662 43.9601L235.761 41.5454H239.397V46.9999H238.559V42.3266H236.556L236.471 44.2726C236.452 44.7201 236.412 45.1142 236.35 45.4552C236.291 45.7937 236.2 46.0778 236.077 46.3074C235.956 46.5371 235.795 46.7099 235.594 46.8259C235.393 46.9419 235.141 46.9999 234.838 46.9999H234.554ZM241.659 43.5198H243.222C243.861 43.5198 244.35 43.682 244.689 44.0063C245.027 44.3306 245.196 44.7414 245.196 45.2385C245.196 45.5652 245.121 45.8624 244.969 46.1299C244.818 46.395 244.595 46.6069 244.301 46.7655C244.008 46.9218 243.648 46.9999 243.222 46.9999H240.935V41.5454H241.773V46.2187H243.222C243.553 46.2187 243.826 46.1311 244.039 45.9559C244.252 45.7807 244.358 45.5558 244.358 45.2811C244.358 44.9923 244.252 44.7568 244.039 44.5745C243.826 44.3922 243.553 44.301 243.222 44.301H241.659V43.5198Z" fill="#1A1A1A" fill-opacity="0.8"/>
<path d="M0 27.9054C0 29.6647 1.40253 31.0957 3.12642 31.0957H11.699V37L13.592 34.9633C16.2919 32.108 18.4394 31.0957 21.798 31.0957H24.8735C26.5974 31.0957 28 29.6647 28 27.9054V0H0V27.9054ZM2.0608 2.10297H25.9392V27.9054C25.9392 28.5051 25.4612 28.9927 24.8735 28.9927H21.798C18.8398 28.9927 16.2862 29.4922 13.4321 32.6812L13.4209 28.9927H3.12642C2.5388 28.9927 2.0608 28.5051 2.0608 27.9054V2.10297Z" fill="#E23C27"/>
</g>
<defs>
<clipPath id="clip0_1337_5184">
<rect width="266" height="50" fill="white"/>
</clipPath>
</defs>
</svg>
