<svg width="30" height="29" viewBox="0 0 30 29" fill="none" xmlns="http://www.w3.org/2000/svg">
<ellipse cx="15" cy="14.5" rx="15" ry="14.5" fill="#F7634F"/>
<g filter="url(#filter0_d_1446_5246)">
<path d="M14.9575 12.9263C14.6181 12.9263 14.3164 13.1419 14.1845 13.3529C14.109 13.0988 13.9016 12.9263 13.5623 12.9263C13.2182 12.9263 12.9166 13.1563 12.8224 13.3002V12.9838H12.3274V15.2988H12.8224V13.6836C12.926 13.5302 13.1287 13.372 13.3455 13.372C13.6141 13.372 13.7226 13.5397 13.7226 13.789V15.2988H14.2175V13.6787C14.3164 13.5302 14.5238 13.372 14.7454 13.372C15.0093 13.372 15.1177 13.5397 15.1177 13.789V15.2988H15.6126V13.626C15.6126 13.1563 15.3769 12.9263 14.9575 12.9263Z" fill="white"/>
<path d="M17.2802 12.9263C16.5591 12.9263 16.1113 13.4775 16.1113 14.1389C16.1113 14.8052 16.5591 15.3563 17.2802 15.3563C18.0107 15.3563 18.4539 14.8052 18.4539 14.1389C18.4539 13.4775 18.0107 12.9263 17.2802 12.9263ZM17.2802 14.9106C16.8608 14.9106 16.6251 14.5511 16.6251 14.1389C16.6251 13.7315 16.8607 13.3721 17.2802 13.3721C17.7044 13.3721 17.9401 13.7315 17.9401 14.1389C17.9401 14.5511 17.7044 14.9106 17.2802 14.9106Z" fill="white"/>
<path d="M19.7971 13.8896C19.5283 13.8274 19.3021 13.7794 19.3021 13.6116C19.3021 13.4486 19.4671 13.3289 19.7263 13.3289C20.0092 13.3289 20.2638 13.4486 20.4003 13.6068L20.6077 13.2521C20.4003 13.0652 20.1081 12.9263 19.7216 12.9263C19.1466 12.9263 18.8261 13.2521 18.8261 13.6308C18.8261 14.1485 19.2928 14.2539 19.6839 14.3401C19.962 14.4025 20.2023 14.4553 20.2023 14.6469C20.2023 14.829 20.0515 14.9584 19.7546 14.9584C19.4576 14.9584 19.1418 14.8003 18.9816 14.6325L18.7554 14.9968C18.991 15.2316 19.3445 15.3563 19.731 15.3563C20.3438 15.3563 20.6784 15.0447 20.6784 14.6373C20.6784 14.0909 20.193 13.9759 19.7971 13.8896Z" fill="white"/>
<path d="M21.4329 14.6807C21.2538 14.6807 21.103 14.8341 21.103 15.0162C21.103 15.1983 21.2539 15.3517 21.4329 15.3517C21.612 15.3517 21.7629 15.1983 21.7629 15.0162C21.7629 14.8341 21.612 14.6807 21.4329 14.6807Z" fill="white"/>
<path d="M22.8281 13.3241V12.9838H22.3333V15.2988H22.8281V13.722C22.9271 13.5589 23.2052 13.4152 23.4126 13.4152C23.4738 13.4152 23.5257 13.4199 23.5681 13.4296V12.9312C23.2711 12.9312 22.9979 13.1036 22.8281 13.3241Z" fill="white"/>
<path d="M25.5053 12.9839V14.6087C25.3875 14.7668 25.1707 14.9107 24.9208 14.9107C24.6428 14.9107 24.4637 14.8004 24.4637 14.4409V12.9839H23.9688V14.6231C23.9688 15.0976 24.2092 15.3564 24.6993 15.3564C25.0575 15.3564 25.3404 15.1791 25.5053 14.9922V15.2989H26.0002V12.9839H25.5053Z" fill="white"/>
<path d="M4 16.7878C4 17.2157 4.34234 17.5638 4.76313 17.5638H6.85563V19L7.31768 18.5045C7.97672 17.81 8.50091 17.5638 9.3207 17.5638H10.0714C10.4922 17.5638 10.8346 17.2157 10.8346 16.7878V10H4V16.7878ZM4.50302 10.5115H10.3315V16.7878C10.3315 16.9336 10.2149 17.0522 10.0714 17.0522H9.3207C8.59862 17.0522 7.97533 17.1737 7.27867 17.9494L7.27594 17.0522H4.76313C4.6197 17.0522 4.50302 16.9336 4.50302 16.7878V10.5115Z" fill="white"/>
</g>
<defs>
<filter id="filter0_d_1446_5246" x="-1" y="10" width="32" height="17" filterUnits="userSpaceOnUse" color-interpolation-filters="sRGB">
<feFlood flood-opacity="0" result="BackgroundImageFix"/>
<feColorMatrix in="SourceAlpha" type="matrix" values="0 0 0 0 0 0 0 0 0 0 0 0 0 0 0 0 0 0 127 0" result="hardAlpha"/>
<feOffset dy="4"/>
<feGaussianBlur stdDeviation="2"/>
<feComposite in2="hardAlpha" operator="out"/>
<feColorMatrix type="matrix" values="0 0 0 0 0 0 0 0 0 0 0 0 0 0 0 0 0 0 0.25 0"/>
<feBlend mode="normal" in2="BackgroundImageFix" result="effect1_dropShadow_1446_5246"/>
<feBlend mode="normal" in="SourceGraphic" in2="effect1_dropShadow_1446_5246" result="shape"/>
</filter>
</defs>
</svg>
