<svg width="17" height="18" viewBox="0 0 17 18" fill="none" xmlns="http://www.w3.org/2000/svg">
<path d="M8.30756 17.9999C7.57312 17.9999 6.86875 17.7081 6.34942 17.1888C5.83009 16.6694 5.53833 15.9651 5.53833 15.2306C5.53833 15.047 5.61127 14.8709 5.7411 14.7411C5.87094 14.6113 6.04703 14.5383 6.23064 14.5383H10.3845C10.5681 14.5383 10.7442 14.6113 10.874 14.7411C11.0039 14.8709 11.0768 15.047 11.0768 15.2306C11.0768 15.9651 10.785 16.6694 10.2657 17.1888C9.74637 17.7081 9.04201 17.9999 8.30756 17.9999ZM7.10987 15.9229C7.23158 16.1328 7.40629 16.3069 7.61648 16.428C7.82668 16.5491 8.06499 16.6128 8.30756 16.6128C8.55013 16.6128 8.78844 16.5491 8.99864 16.428C9.20884 16.3069 9.38354 16.1328 9.50525 15.9229H7.10987Z" fill="#F7634F"/>
<path d="M9.69237 2.76923H6.92314C6.73953 2.76923 6.56344 2.69629 6.43361 2.56646C6.30377 2.43663 6.23083 2.26053 6.23083 2.07692C6.23083 1.52609 6.44965 0.997815 6.83915 0.608317C7.22865 0.218818 7.75692 0 8.30776 0C8.85859 0 9.38687 0.218818 9.77636 0.608317C10.1659 0.997815 10.3847 1.52609 10.3847 2.07692C10.3847 2.26053 10.3117 2.43663 10.1819 2.56646C10.0521 2.69629 9.87598 2.76923 9.69237 2.76923Z" fill="#F7634F"/>
<path d="M15.9231 15.923H0.692309C0.508698 15.923 0.332607 15.85 0.202774 15.7202C0.0729409 15.5904 1.46151e-06 15.4143 1.46151e-06 15.2307C-0.000605692 14.4488 0.187968 13.6784 0.549627 12.9852C0.911287 12.2921 1.43529 11.6967 2.07692 11.2499V7.61529C2.07689 5.96996 2.72764 4.3914 3.88716 3.22409C5.04669 2.05678 6.62086 1.39549 8.26615 1.38452H8.34231C9.99481 1.38452 11.5796 2.04098 12.7481 3.20947C13.9166 4.37797 14.5731 5.96279 14.5731 7.61529V11.2499C15.2083 11.7005 15.7256 12.2976 16.0811 12.9905C16.4366 13.6834 16.6199 14.4519 16.6154 15.2307C16.6154 15.4143 16.5424 15.5904 16.4126 15.7202C16.2828 15.85 16.1067 15.923 15.9231 15.923ZM1.45385 14.5384H15.1615C15.0635 14.0584 14.8647 13.6047 14.5782 13.2073C14.2918 12.8099 13.9243 12.4778 13.5 12.233C13.3944 12.172 13.3067 12.0842 13.2459 11.9784C13.1851 11.8726 13.1534 11.7527 13.1538 11.6307V7.61529C13.1538 6.33001 12.6433 5.09737 11.7344 4.18854C10.8256 3.27971 9.59297 2.76914 8.30769 2.76914C7.02241 2.76914 5.78978 3.27971 4.88095 4.18854C3.97212 5.09737 3.46154 6.33001 3.46154 7.61529V11.6307C3.46202 11.7527 3.43026 11.8726 3.36948 11.9784C3.30869 12.0842 3.22104 12.172 3.11539 12.233C2.69108 12.4778 2.32356 12.8099 2.03714 13.2073C1.75071 13.6047 1.5519 14.0584 1.45385 14.5384Z" fill="#F7634F"/>
</svg>
