<svg width="31" height="31" viewBox="0 0 31 31" fill="none" xmlns="http://www.w3.org/2000/svg">
<path d="M31 15.5C31 24.0604 24.0604 31 15.5 31C6.93959 31 0 24.0604 0 15.5C0 6.93959 6.93959 0 15.5 0C24.0604 0 31 6.93959 31 15.5Z" fill="url(#paint0_linear_1354_5737)"/>
<path d="M15.95 21.0038V23.15H18.925C19.1588 23.15 19.35 23.3413 19.35 23.575C19.35 23.8088 19.1588 24 18.925 24H12.125C11.8913 24 11.7 23.8088 11.7 23.575C11.7 23.3413 11.8913 23.15 12.125 23.15H15.1V21.0038C12.2525 20.7913 10 18.39 10 15.5C10 15.2663 10.1912 15.075 10.425 15.075C10.6587 15.075 10.85 15.2663 10.85 15.5C10.85 18.0712 12.9537 20.175 15.525 20.175C18.0963 20.175 20.2 18.0712 20.2 15.5C20.2 15.2663 20.3913 15.075 20.625 15.075C20.8588 15.075 21.05 15.2663 21.05 15.5C21.05 18.4113 18.7975 20.7913 15.95 21.0038ZM18.7125 10.1875V15.5C18.7125 17.2638 17.2888 18.6875 15.525 18.6875C13.7613 18.6875 12.3375 17.2638 12.3375 15.5V10.1875C12.3375 8.42375 13.7613 7 15.525 7C17.2888 7 18.7125 8.42375 18.7125 10.1875ZM17.8625 10.1875C17.8625 8.89125 16.8212 7.85 15.525 7.85C14.2288 7.85 13.1875 8.89125 13.1875 10.1875V15.5C13.1875 16.7963 14.2288 17.8375 15.525 17.8375C16.8212 17.8375 17.8625 16.7963 17.8625 15.5V10.1875Z" fill="white"/>
<defs>
<linearGradient id="paint0_linear_1354_5737" x1="15.0303" y1="-13.1515" x2="15.5" y2="31" gradientUnits="userSpaceOnUse">
<stop stop-color="#79CFC2"/>
<stop offset="1" stop-color="#0BA992"/>
</linearGradient>
</defs>
</svg>
