<svg width="31" height="31" viewBox="0 0 31 31" fill="none" xmlns="http://www.w3.org/2000/svg">
<path d="M31 15.5C31 24.0604 24.0604 31 15.5 31C6.93959 31 0 24.0604 0 15.5C0 6.93959 6.93959 0 15.5 0C24.0604 0 31 6.93959 31 15.5Z" fill="url(#paint0_linear_1434_5460)"/>
<path d="M23.9917 7.63837C23.994 7.62804 23.9957 7.6176 23.9969 7.60709C23.9969 7.59998 23.9993 7.59287 23.9998 7.58577C24.0003 7.57866 23.9998 7.56681 23.9998 7.55733C23.9998 7.54785 23.9998 7.54074 23.9998 7.53269C23.9998 7.52463 23.9998 7.5161 23.9998 7.50804C23.9998 7.49999 23.9998 7.48861 23.9998 7.47961C23.9998 7.4706 23.9998 7.46492 23.9969 7.45781C23.9941 7.4507 23.9941 7.43695 23.9917 7.42653C23.9894 7.4161 23.9889 7.41326 23.987 7.40662C23.9851 7.39999 23.9818 7.3853 23.9785 7.37487V7.36871L23.9728 7.35354C23.9696 7.34404 23.966 7.33471 23.9619 7.32558C23.9586 7.31705 23.9548 7.30947 23.9515 7.30141L23.9401 7.27867C23.9353 7.27014 23.9306 7.26208 23.9254 7.25402C23.9202 7.24596 23.9173 7.24075 23.9131 7.23412C23.9088 7.22748 23.9022 7.21848 23.8965 7.21042L23.8818 7.19194C23.8761 7.18483 23.87 7.17819 23.8643 7.17156L23.8463 7.1526L23.8287 7.13602C23.8211 7.12938 23.814 7.12275 23.8065 7.11706L23.7894 7.10331C23.7813 7.09715 23.7728 7.09147 23.7643 7.08578C23.7586 7.08154 23.7526 7.07774 23.7463 7.07441L23.7197 7.05924L23.6984 7.04834C23.6904 7.04455 23.6818 7.04028 23.6733 7.03697C23.6646 7.03316 23.6558 7.02984 23.6468 7.02701L23.6302 7.02085H23.624L23.5927 7.0128C23.5862 7.01077 23.5796 7.00919 23.5728 7.00806C23.5619 7.00806 23.5515 7.00427 23.5411 7.00284L23.5198 7H23.4904H23.4667H23.4406H23.4136L23.3909 7.00284L23.361 7.00758L23.3402 7.0128L23.3089 7.02085H23.3032L6.37373 12.4349C6.27557 12.4663 6.1885 12.5253 6.12291 12.6048C6.05731 12.6843 6.01596 12.7809 6.00377 12.8833C5.99158 12.9856 6.00908 13.0893 6.05418 13.182C6.09927 13.2747 6.17006 13.3524 6.25811 13.406L13.3039 17.6954L17.5928 24.7422C17.6406 24.8209 17.708 24.886 17.7883 24.9312C17.8687 24.9764 17.9593 25 18.0515 25C18.0728 25.0001 18.0942 24.9989 18.1154 24.9962C18.2177 24.9841 18.3144 24.9428 18.3939 24.8773C18.4734 24.8117 18.5323 24.7247 18.5637 24.6265L23.977 7.69619V7.6905C23.9804 7.68008 23.9832 7.66918 23.9856 7.65828C23.9879 7.64738 23.9903 7.64501 23.9917 7.63837ZM17.8984 23.1778L14.4056 17.4381L20.6131 11.1719C20.7137 11.0707 20.7699 10.9336 20.7694 10.7909C20.7689 10.6483 20.7118 10.5116 20.6105 10.411C20.5093 10.3105 20.3723 10.2543 20.2296 10.2548C20.0869 10.2553 19.9503 10.3124 19.8497 10.4137L13.6659 16.6576L7.82231 13.0998L22.636 8.36063L17.8984 23.1778Z" fill="white"/>
<defs>
<linearGradient id="paint0_linear_1434_5460" x1="15.0303" y1="-13.1515" x2="15.5" y2="31" gradientUnits="userSpaceOnUse">
<stop stop-color="#F9B19B"/>
<stop offset="1" stop-color="#E23C27"/>
</linearGradient>
</defs>
</svg>
