<svg width="89" height="89" viewBox="0 0 89 89" fill="none" xmlns="http://www.w3.org/2000/svg">
<circle cx="44.5" cy="44.5" r="44.5" fill="url(#paint0_radial_1497_5406)"/>
<path fill-rule="evenodd" clip-rule="evenodd" d="M21 24.5856C21 23.7099 21.7014 23 22.5667 23H65.7806C66.6458 23 67.3473 23.7099 67.3473 24.5856V51.1671L67.4049 51.1441V65.6475C67.4049 66.3539 66.5612 66.7075 66.0677 66.208L58.1356 58.1802H46.453C45.8567 49.0122 38.3202 41.7628 29.1108 41.7628C26.1814 41.7628 23.4213 42.4962 21 43.7916V24.5856Z" fill="white"/>
<path fill-rule="evenodd" clip-rule="evenodd" d="M28.3438 48.7991C28.1275 48.7991 27.9521 48.9765 27.9521 49.1955V57.7841C27.9521 58.003 28.1275 58.1805 28.3438 58.1805H32.1952C32.4115 58.1805 32.5869 58.003 32.5869 57.7841V49.1955C32.5869 48.9765 32.4115 48.7991 32.1952 48.7991H28.3438ZM32.5869 62.8711C32.5869 64.1666 31.5494 65.2166 30.2695 65.2166C28.9897 65.2166 27.9521 64.1666 27.9521 62.8711C27.9521 61.5758 28.9897 60.5258 30.2695 60.5258C31.5494 60.5258 32.5869 61.5758 32.5869 62.8711Z" fill="white" fill-opacity="0.5"/>
<path d="M53.0512 32.3813H28.3436C28.1273 32.3813 27.9519 32.5588 27.9519 32.7777V36.6756C27.9519 36.8946 28.1273 37.072 28.3436 37.072H53.0512C53.2675 37.072 53.4429 36.8946 53.4429 36.6756V32.7777C53.4429 32.5588 53.2675 32.3813 53.0512 32.3813Z" fill="#FFF5F2"/>
<defs>
<radialGradient id="paint0_radial_1497_5406" cx="0" cy="0" r="1" gradientUnits="userSpaceOnUse" gradientTransform="translate(44.5 44.5) rotate(90) scale(44.5)">
<stop offset="0.0833333" stop-color="#E84832" stop-opacity="0"/>
<stop offset="0.796875" stop-color="#E84832"/>
</radialGradient>
</defs>
</svg>
