<svg width="199" height="210" viewBox="0 0 199 210" fill="none" xmlns="http://www.w3.org/2000/svg">
<circle cx="99.5" cy="96.5" r="44.5" fill="url(#paint0_radial_1406_5257)"/>
<g filter="url(#filter0_dd_1406_5257)">
<path fill-rule="evenodd" clip-rule="evenodd" d="M80 78.2527C80 76.6802 81.1199 75.3308 82.6654 75.041L98.4426 72.0828C99.0313 71.9724 99.6354 71.9724 100.224 72.0828L116.001 75.041C117.547 75.3308 118.667 76.6802 118.667 78.2527V97.9747C118.667 105.066 115.014 111.657 109 115.416L100.614 120.657C99.8305 121.147 98.8362 121.147 98.0525 120.657L89.6667 115.416C83.6531 111.657 80 105.066 80 97.9747V78.2527Z" fill="white"/>
</g>
<path fill-rule="evenodd" clip-rule="evenodd" d="M96.6389 110.583L107.917 94.6334H102.278V84L91 99.95H96.6389V110.583Z" fill="#FFF5F2"/>
<defs>
<filter id="filter0_dd_1406_5257" x="0" y="0" width="198.667" height="209.024" filterUnits="userSpaceOnUse" color-interpolation-filters="sRGB">
<feFlood flood-opacity="0" result="BackgroundImageFix"/>
<feColorMatrix in="SourceAlpha" type="matrix" values="0 0 0 0 0 0 0 0 0 0 0 0 0 0 0 0 0 0 127 0" result="hardAlpha"/>
<feOffset dy="12"/>
<feGaussianBlur stdDeviation="6"/>
<feColorMatrix type="matrix" values="0 0 0 0 0 0 0 0 0 0 0 0 0 0 0 0 0 0 0.02 0"/>
<feBlend mode="normal" in2="BackgroundImageFix" result="effect1_dropShadow_1406_5257"/>
<feColorMatrix in="SourceAlpha" type="matrix" values="0 0 0 0 0 0 0 0 0 0 0 0 0 0 0 0 0 0 127 0" result="hardAlpha"/>
<feOffset dy="8"/>
<feGaussianBlur stdDeviation="40"/>
<feColorMatrix type="matrix" values="0 0 0 0 0 0 0 0 0 0 0 0 0 0 0 0 0 0 0.08 0"/>
<feBlend mode="normal" in2="effect1_dropShadow_1406_5257" result="effect2_dropShadow_1406_5257"/>
<feBlend mode="normal" in="SourceGraphic" in2="effect2_dropShadow_1406_5257" result="shape"/>
</filter>
<radialGradient id="paint0_radial_1406_5257" cx="0" cy="0" r="1" gradientUnits="userSpaceOnUse" gradientTransform="translate(99.5 96.5) rotate(90) scale(44.5)">
<stop offset="0.0833333" stop-color="#E84832" stop-opacity="0"/>
<stop offset="0.796875" stop-color="#E84832"/>
</radialGradient>
</defs>
</svg>
