<svg width="89" height="89" viewBox="0 0 89 89" fill="none" xmlns="http://www.w3.org/2000/svg">
<circle cx="44.5" cy="44.5" r="44.5" fill="url(#paint0_radial_1497_5407)"/>
<path fill-rule="evenodd" clip-rule="evenodd" d="M19.8548 24C19.3827 24 19 24.3827 19 24.8548V41.5488C20.383 41.2681 21.8144 41.1207 23.2802 41.1207C34.6201 41.1207 43.9001 49.9407 44.6343 61.0949H69.5074C69.9793 61.0949 70.3623 60.7123 70.3623 60.24V24.8548C70.3623 24.3827 69.9793 24 69.5074 24H19.8548Z" fill="white"/>
<path d="M31.5687 61.4329C32.941 62.1313 33.4972 63.8295 32.8111 65.2263C32.1249 66.6231 30.4562 67.1891 29.0839 66.4906L21.9919 62.8819V51.2381C21.9919 49.6765 23.2357 48.4106 24.77 48.4106C26.3044 48.4106 27.5482 49.6765 27.5482 51.2381V59.3869L31.5687 61.4329Z" fill="white" fill-opacity="0.5"/>
<path fill-rule="evenodd" clip-rule="evenodd" d="M62.0331 29.4298C63.0649 28.8758 64.3519 29.2608 64.908 30.2896C65.4636 31.3183 65.0772 32.6014 64.0454 33.1554L45.6517 43.0286C45.0236 43.3658 44.2675 43.3658 43.6393 43.0286L25.2457 33.1554C24.2137 32.6014 23.8275 31.3183 24.3833 30.2896C24.939 29.2608 26.2261 28.8758 27.2581 29.4298L44.4434 38.6544C44.5696 38.7222 44.7214 38.7222 44.8476 38.6544L62.0331 29.4298Z" fill="#FFF5F2"/>
<defs>
<radialGradient id="paint0_radial_1497_5407" cx="0" cy="0" r="1" gradientUnits="userSpaceOnUse" gradientTransform="translate(44.5 44.5) rotate(90) scale(44.5)">
<stop offset="0.0833333" stop-color="#E84832" stop-opacity="0"/>
<stop offset="0.796875" stop-color="#E84832"/>
</radialGradient>
</defs>
</svg>
